<svg version="1.1" xmlns="http://www.w3.org/2000/svg" xmlns:xlink="http://www.w3.org/1999/xlink" stroke-linecap="round" stroke-linejoin="round" stroke-width="0" fill-rule="evenodd" clip-rule="evenodd" id="sB6OorTWbbyhIPNyWCnF_top" viewBox="-1460.5 -82655.972 250600 89150" width="250.6mm" height="89.15mm" class="w-100 h-100"><defs><style>.sB6OorTWbbyhIPNyWCnF_fr4 {color: #666666;}
.sB6OorTWbbyhIPNyWCnF_cu {color: #cccccc;}
.sB6OorTWbbyhIPNyWCnF_cf {color: #cc9933;}
.sB6OorTWbbyhIPNyWCnF_sm {color: #ffffff; opacity: 0.75;}
.sB6OorTWbbyhIPNyWCnF_ss {color: #000000;}
.sB6OorTWbbyhIPNyWCnF_sp {color: #999999;}
.sB6OorTWbbyhIPNyWCnF_out {color: #000000;}</style><rect x="-1000" y="-1000" width="2000" height="2000" id="SWbtPaT-oyauRIl65zH8_pad-10"/><circle cx="0" cy="0" r="1000" id="SWbtPaT-oyauRIl65zH8_pad-11"/><circle cx="0" cy="0" r="325" id="SWbtPaT-oyauRIl65zH8_pad-12"/><rect x="-500" y="-1050" width="1000" height="2100" rx="500" ry="500" id="SWbtPaT-oyauRIl65zH8_pad-13"/><rect x="-500" y="-800" width="1000" height="1600" rx="500" ry="500" id="SWbtPaT-oyauRIl65zH8_pad-14"/><rect x="-850" y="-850" width="1700" height="1700" id="SWbtPaT-oyauRIl65zH8_pad-15"/><rect x="-850" y="-850" width="1700" height="1700" rx="850" ry="850" id="SWbtPaT-oyauRIl65zH8_pad-16"/><circle cx="0" cy="0" r="1993.9" id="SWbtPaT-oyauRIl65zH8_pad-17"/><circle cx="0" cy="0" r="875" id="SWbtPaT-oyauRIl65zH8_pad-18"/><circle cx="0" cy="0" r="1524" id="SWbtPaT-oyauRIl65zH8_pad-19"/><rect x="-1000" y="-1000" width="2000" height="2000" id="ZfbqBI2GfqfQKM-TQdBU_pad-10"/><circle cx="0" cy="0" r="1000" id="ZfbqBI2GfqfQKM-TQdBU_pad-11"/><rect x="-500" y="-1050" width="1000" height="2100" rx="500" ry="500" id="ZfbqBI2GfqfQKM-TQdBU_pad-12"/><rect x="-500" y="-800" width="1000" height="1600" rx="500" ry="500" id="ZfbqBI2GfqfQKM-TQdBU_pad-13"/><rect x="-850" y="-850" width="1700" height="1700" id="ZfbqBI2GfqfQKM-TQdBU_pad-14"/><rect x="-850" y="-850" width="1700" height="1700" rx="850" ry="850" id="ZfbqBI2GfqfQKM-TQdBU_pad-15"/><circle cx="0" cy="0" r="1125" id="ZfbqBI2GfqfQKM-TQdBU_pad-16"/><circle cx="0" cy="0" r="400" id="ZfbqBI2GfqfQKM-TQdBU_pad-17"/><circle cx="0" cy="0" r="12.8" id="gImpszW3IqV4utcRHxxa_pad-1"/><circle cx="0" cy="0" r="34.45" id="gImpszW3IqV4utcRHxxa_pad-2"/><circle cx="0" cy="0" r="60" id="gImpszW3IqV4utcRHxxa_pad-3"/><circle cx="0" cy="0" r="78.5" id="gImpszW3IqV4utcRHxxa_pad-4"/><circle cx="0" cy="0" r="7.85" id="moJ6HGInz-yP_92gJXoS_pad-1"/><circle cx="0" cy="0" r="15" id="moJ6HGInz-yP_92gJXoS_pad-3"/><circle cx="0" cy="0" r="19.7" id="moJ6HGInz-yP_92gJXoS_pad-4"/><circle cx="0" cy="0" r="28.95" id="moJ6HGInz-yP_92gJXoS_pad-5"/><g id="sB6OorTWbbyhIPNyWCnF_top_soldermask"><use xlink:href="#SWbtPaT-oyauRIl65zH8_pad-10" x="245625" y="-12025"/><use xlink:href="#SWbtPaT-oyauRIl65zH8_pad-11" x="245625" y="-9525"/><use xlink:href="#SWbtPaT-oyauRIl65zH8_pad-11" x="245625" y="-7025"/><use xlink:href="#SWbtPaT-oyauRIl65zH8_pad-11" x="231125" y="-12025"/><use xlink:href="#SWbtPaT-oyauRIl65zH8_pad-11" x="231125" y="-7025"/><use xlink:href="#SWbtPaT-oyauRIl65zH8_pad-12" x="126715" y="-1170"/><use xlink:href="#SWbtPaT-oyauRIl65zH8_pad-12" x="120935" y="-1170"/><use xlink:href="#SWbtPaT-oyauRIl65zH8_pad-13" x="119505" y="-1700"/><use xlink:href="#SWbtPaT-oyauRIl65zH8_pad-13" x="128145" y="-1700"/><use xlink:href="#SWbtPaT-oyauRIl65zH8_pad-14" x="119505" y="2480"/><use xlink:href="#SWbtPaT-oyauRIl65zH8_pad-14" x="128145" y="2480"/><use xlink:href="#SWbtPaT-oyauRIl65zH8_pad-15" x="130810" y="-19939"/><use xlink:href="#SWbtPaT-oyauRIl65zH8_pad-16" x="133350" y="-19939"/><use xlink:href="#SWbtPaT-oyauRIl65zH8_pad-16" x="130683" y="-17399"/><use xlink:href="#SWbtPaT-oyauRIl65zH8_pad-16" x="133223" y="-17399"/><use xlink:href="#SWbtPaT-oyauRIl65zH8_pad-16" x="130810" y="-14859"/><use xlink:href="#SWbtPaT-oyauRIl65zH8_pad-16" x="133350" y="-14859"/><use xlink:href="#SWbtPaT-oyauRIl65zH8_pad-17" x="235743.75" y="-66675"/><use xlink:href="#SWbtPaT-oyauRIl65zH8_pad-18" x="230663.75" y="-66675"/><use xlink:href="#SWbtPaT-oyauRIl65zH8_pad-18" x="240823.75" y="-66675"/><use xlink:href="#SWbtPaT-oyauRIl65zH8_pad-17" x="214312.5" y="-66675"/><use xlink:href="#SWbtPaT-oyauRIl65zH8_pad-18" x="209232.5" y="-66675"/><use xlink:href="#SWbtPaT-oyauRIl65zH8_pad-18" x="219392.5" y="-66675"/><use xlink:href="#SWbtPaT-oyauRIl65zH8_pad-17" x="192881.25" y="-66675"/><use xlink:href="#SWbtPaT-oyauRIl65zH8_pad-18" x="187801.25" y="-66675"/><use xlink:href="#SWbtPaT-oyauRIl65zH8_pad-18" x="197961.25" y="-66675"/><use xlink:href="#SWbtPaT-oyauRIl65zH8_pad-17" x="171450" y="-66675"/><use xlink:href="#SWbtPaT-oyauRIl65zH8_pad-18" x="166370" y="-66675"/><use xlink:href="#SWbtPaT-oyauRIl65zH8_pad-18" x="176530" y="-66675"/><use xlink:href="#SWbtPaT-oyauRIl65zH8_pad-17" x="152400" y="-66675"/><use xlink:href="#SWbtPaT-oyauRIl65zH8_pad-18" x="147320" y="-66675"/><use xlink:href="#SWbtPaT-oyauRIl65zH8_pad-18" x="157480" y="-66675"/><use xlink:href="#SWbtPaT-oyauRIl65zH8_pad-19" x="133350" y="-73660"/><use xlink:href="#SWbtPaT-oyauRIl65zH8_pad-19" x="171450" y="-73660"/><use xlink:href="#SWbtPaT-oyauRIl65zH8_pad-17" x="133350" y="-58420"/><use xlink:href="#SWbtPaT-oyauRIl65zH8_pad-17" x="171450" y="-58420"/><use xlink:href="#SWbtPaT-oyauRIl65zH8_pad-17" x="140493.75" y="-66675"/><use xlink:href="#SWbtPaT-oyauRIl65zH8_pad-18" x="135413.75" y="-66675"/><use xlink:href="#SWbtPaT-oyauRIl65zH8_pad-18" x="145573.75" y="-66675"/><use xlink:href="#SWbtPaT-oyauRIl65zH8_pad-19" x="128587.5" y="-73660"/><use xlink:href="#SWbtPaT-oyauRIl65zH8_pad-19" x="152400" y="-73660"/><use xlink:href="#SWbtPaT-oyauRIl65zH8_pad-17" x="128587.5" y="-58420"/><use xlink:href="#SWbtPaT-oyauRIl65zH8_pad-17" x="152400" y="-58420"/><use xlink:href="#SWbtPaT-oyauRIl65zH8_pad-17" x="171450" y="-58420"/><use xlink:href="#SWbtPaT-oyauRIl65zH8_pad-17" x="76200" y="-58420"/><use xlink:href="#SWbtPaT-oyauRIl65zH8_pad-19" x="171450" y="-73660"/><use xlink:href="#SWbtPaT-oyauRIl65zH8_pad-19" x="76200" y="-73660"/><use xlink:href="#SWbtPaT-oyauRIl65zH8_pad-18" x="128905" y="-66675"/><use xlink:href="#SWbtPaT-oyauRIl65zH8_pad-18" x="118745" y="-66675"/><use xlink:href="#SWbtPaT-oyauRIl65zH8_pad-17" x="123825" y="-66675"/><use xlink:href="#SWbtPaT-oyauRIl65zH8_pad-17" x="95250" y="-66675"/><use xlink:href="#SWbtPaT-oyauRIl65zH8_pad-18" x="90170" y="-66675"/><use xlink:href="#SWbtPaT-oyauRIl65zH8_pad-18" x="100330" y="-66675"/><use xlink:href="#SWbtPaT-oyauRIl65zH8_pad-19" x="76200" y="-73660"/><use xlink:href="#SWbtPaT-oyauRIl65zH8_pad-19" x="114300" y="-73660"/><use xlink:href="#SWbtPaT-oyauRIl65zH8_pad-17" x="76200" y="-58420"/><use xlink:href="#SWbtPaT-oyauRIl65zH8_pad-17" x="114300" y="-58420"/><use xlink:href="#SWbtPaT-oyauRIl65zH8_pad-17" x="92868.75" y="-66675"/><use xlink:href="#SWbtPaT-oyauRIl65zH8_pad-18" x="87788.75" y="-66675"/><use xlink:href="#SWbtPaT-oyauRIl65zH8_pad-18" x="97948.75" y="-66675"/><use xlink:href="#SWbtPaT-oyauRIl65zH8_pad-19" x="80962.5" y="-73660"/><use xlink:href="#SWbtPaT-oyauRIl65zH8_pad-19" x="104775" y="-73660"/><use xlink:href="#SWbtPaT-oyauRIl65zH8_pad-17" x="80962.5" y="-58420"/><use xlink:href="#SWbtPaT-oyauRIl65zH8_pad-17" x="104775" y="-58420"/><use xlink:href="#SWbtPaT-oyauRIl65zH8_pad-17" x="54768.75" y="-66675"/><use xlink:href="#SWbtPaT-oyauRIl65zH8_pad-18" x="49688.75" y="-66675"/><use xlink:href="#SWbtPaT-oyauRIl65zH8_pad-18" x="59848.75" y="-66675"/><use xlink:href="#SWbtPaT-oyauRIl65zH8_pad-17" x="33337.5" y="-66675"/><use xlink:href="#SWbtPaT-oyauRIl65zH8_pad-18" x="28257.5" y="-66675"/><use xlink:href="#SWbtPaT-oyauRIl65zH8_pad-18" x="38417.5" y="-66675"/><use xlink:href="#SWbtPaT-oyauRIl65zH8_pad-17" x="11906.25" y="-66675"/><use xlink:href="#SWbtPaT-oyauRIl65zH8_pad-18" x="6826.25" y="-66675"/><use xlink:href="#SWbtPaT-oyauRIl65zH8_pad-18" x="16986.25" y="-66675"/><use xlink:href="#SWbtPaT-oyauRIl65zH8_pad-17" x="235743.75" y="-47625"/><use xlink:href="#SWbtPaT-oyauRIl65zH8_pad-18" x="230663.75" y="-47625"/><use xlink:href="#SWbtPaT-oyauRIl65zH8_pad-18" x="240823.75" y="-47625"/><use xlink:href="#SWbtPaT-oyauRIl65zH8_pad-17" x="214312.5" y="-47625"/><use xlink:href="#SWbtPaT-oyauRIl65zH8_pad-18" x="209232.5" y="-47625"/><use xlink:href="#SWbtPaT-oyauRIl65zH8_pad-18" x="219392.5" y="-47625"/><use xlink:href="#SWbtPaT-oyauRIl65zH8_pad-17" x="195262.5" y="-47625"/><use xlink:href="#SWbtPaT-oyauRIl65zH8_pad-18" x="190182.5" y="-47625"/><use xlink:href="#SWbtPaT-oyauRIl65zH8_pad-18" x="200342.5" y="-47625"/><use xlink:href="#SWbtPaT-oyauRIl65zH8_pad-17" x="176212.5" y="-47625"/><use xlink:href="#SWbtPaT-oyauRIl65zH8_pad-18" x="171132.5" y="-47625"/><use xlink:href="#SWbtPaT-oyauRIl65zH8_pad-18" x="181292.5" y="-47625"/><use xlink:href="#SWbtPaT-oyauRIl65zH8_pad-17" x="157162.5" y="-47625"/><use xlink:href="#SWbtPaT-oyauRIl65zH8_pad-18" x="152082.5" y="-47625"/><use xlink:href="#SWbtPaT-oyauRIl65zH8_pad-18" x="162242.5" y="-47625"/><use xlink:href="#SWbtPaT-oyauRIl65zH8_pad-17" x="138112.5" y="-47625"/><use xlink:href="#SWbtPaT-oyauRIl65zH8_pad-18" x="133032.5" y="-47625"/><use xlink:href="#SWbtPaT-oyauRIl65zH8_pad-18" x="143192.5" y="-47625"/><use xlink:href="#SWbtPaT-oyauRIl65zH8_pad-17" x="119062.5" y="-47625"/><use xlink:href="#SWbtPaT-oyauRIl65zH8_pad-18" x="113982.5" y="-47625"/><use xlink:href="#SWbtPaT-oyauRIl65zH8_pad-18" x="124142.5" y="-47625"/><use xlink:href="#SWbtPaT-oyauRIl65zH8_pad-17" x="100012.5" y="-47625"/><use xlink:href="#SWbtPaT-oyauRIl65zH8_pad-18" x="94932.5" y="-47625"/><use xlink:href="#SWbtPaT-oyauRIl65zH8_pad-18" x="105092.5" y="-47625"/><use xlink:href="#SWbtPaT-oyauRIl65zH8_pad-17" x="80962.5" y="-47625"/><use xlink:href="#SWbtPaT-oyauRIl65zH8_pad-18" x="75882.5" y="-47625"/><use xlink:href="#SWbtPaT-oyauRIl65zH8_pad-18" x="86042.5" y="-47625"/><use xlink:href="#SWbtPaT-oyauRIl65zH8_pad-17" x="61912.5" y="-47625"/><use xlink:href="#SWbtPaT-oyauRIl65zH8_pad-18" x="56832.5" y="-47625"/><use xlink:href="#SWbtPaT-oyauRIl65zH8_pad-18" x="66992.5" y="-47625"/><use xlink:href="#SWbtPaT-oyauRIl65zH8_pad-17" x="42862.5" y="-47625"/><use xlink:href="#SWbtPaT-oyauRIl65zH8_pad-18" x="37782.5" y="-47625"/><use xlink:href="#SWbtPaT-oyauRIl65zH8_pad-18" x="47942.5" y="-47625"/><use xlink:href="#SWbtPaT-oyauRIl65zH8_pad-17" x="16668.75" y="-47625"/><use xlink:href="#SWbtPaT-oyauRIl65zH8_pad-18" x="11588.75" y="-47625"/><use xlink:href="#SWbtPaT-oyauRIl65zH8_pad-18" x="21748.75" y="-47625"/><use xlink:href="#SWbtPaT-oyauRIl65zH8_pad-17" x="230981.25" y="-28575"/><use xlink:href="#SWbtPaT-oyauRIl65zH8_pad-18" x="225901.25" y="-28575"/><use xlink:href="#SWbtPaT-oyauRIl65zH8_pad-18" x="236061.25" y="-28575"/><use xlink:href="#SWbtPaT-oyauRIl65zH8_pad-17" x="204787.5" y="-28575"/><use xlink:href="#SWbtPaT-oyauRIl65zH8_pad-18" x="199707.5" y="-28575"/><use xlink:href="#SWbtPaT-oyauRIl65zH8_pad-18" x="209867.5" y="-28575"/><use xlink:href="#SWbtPaT-oyauRIl65zH8_pad-17" x="185737.5" y="-28575"/><use xlink:href="#SWbtPaT-oyauRIl65zH8_pad-18" x="180657.5" y="-28575"/><use xlink:href="#SWbtPaT-oyauRIl65zH8_pad-18" x="190817.5" y="-28575"/><use xlink:href="#SWbtPaT-oyauRIl65zH8_pad-17" x="166687.5" y="-28575"/><use xlink:href="#SWbtPaT-oyauRIl65zH8_pad-18" x="161607.5" y="-28575"/><use xlink:href="#SWbtPaT-oyauRIl65zH8_pad-18" x="171767.5" y="-28575"/><use xlink:href="#SWbtPaT-oyauRIl65zH8_pad-17" x="147637.5" y="-28575"/><use xlink:href="#SWbtPaT-oyauRIl65zH8_pad-18" x="142557.5" y="-28575"/><use xlink:href="#SWbtPaT-oyauRIl65zH8_pad-18" x="152717.5" y="-28575"/><use xlink:href="#SWbtPaT-oyauRIl65zH8_pad-17" x="128587.5" y="-28575"/><use xlink:href="#SWbtPaT-oyauRIl65zH8_pad-18" x="123507.5" y="-28575"/><use xlink:href="#SWbtPaT-oyauRIl65zH8_pad-18" x="133667.5" y="-28575"/><use xlink:href="#SWbtPaT-oyauRIl65zH8_pad-17" x="109537.5" y="-28575"/><use xlink:href="#SWbtPaT-oyauRIl65zH8_pad-18" x="104457.5" y="-28575"/><use xlink:href="#SWbtPaT-oyauRIl65zH8_pad-18" x="114617.5" y="-28575"/><use xlink:href="#SWbtPaT-oyauRIl65zH8_pad-17" x="90487.5" y="-28575"/><use xlink:href="#SWbtPaT-oyauRIl65zH8_pad-18" x="85407.5" y="-28575"/><use xlink:href="#SWbtPaT-oyauRIl65zH8_pad-18" x="95567.5" y="-28575"/><use xlink:href="#SWbtPaT-oyauRIl65zH8_pad-17" x="71437.5" y="-28575"/><use xlink:href="#SWbtPaT-oyauRIl65zH8_pad-18" x="66357.5" y="-28575"/><use xlink:href="#SWbtPaT-oyauRIl65zH8_pad-18" x="76517.5" y="-28575"/><use xlink:href="#SWbtPaT-oyauRIl65zH8_pad-17" x="52387.5" y="-28575"/><use xlink:href="#SWbtPaT-oyauRIl65zH8_pad-18" x="47307.5" y="-28575"/><use xlink:href="#SWbtPaT-oyauRIl65zH8_pad-18" x="57467.5" y="-28575"/><use xlink:href="#SWbtPaT-oyauRIl65zH8_pad-17" x="33337.5" y="-28575"/><use xlink:href="#SWbtPaT-oyauRIl65zH8_pad-18" x="28257.5" y="-28575"/><use xlink:href="#SWbtPaT-oyauRIl65zH8_pad-18" x="38417.5" y="-28575"/><use xlink:href="#SWbtPaT-oyauRIl65zH8_pad-17" x="11906.25" y="-28575"/><use xlink:href="#SWbtPaT-oyauRIl65zH8_pad-18" x="6826.25" y="-28575"/><use xlink:href="#SWbtPaT-oyauRIl65zH8_pad-18" x="16986.25" y="-28575"/><use xlink:href="#SWbtPaT-oyauRIl65zH8_pad-17" x="238125" y="-9525"/><use xlink:href="#SWbtPaT-oyauRIl65zH8_pad-18" x="233045" y="-9525"/><use xlink:href="#SWbtPaT-oyauRIl65zH8_pad-18" x="243205" y="-9525"/><use xlink:href="#SWbtPaT-oyauRIl65zH8_pad-17" x="228600" y="-9525"/><use xlink:href="#SWbtPaT-oyauRIl65zH8_pad-18" x="223520" y="-9525"/><use xlink:href="#SWbtPaT-oyauRIl65zH8_pad-18" x="233680" y="-9525"/><use xlink:href="#SWbtPaT-oyauRIl65zH8_pad-19" x="216693.75" y="-2540"/><use xlink:href="#SWbtPaT-oyauRIl65zH8_pad-19" x="240506.25" y="-2540"/><use xlink:href="#SWbtPaT-oyauRIl65zH8_pad-17" x="216693.75" y="-17780"/><use xlink:href="#SWbtPaT-oyauRIl65zH8_pad-17" x="240506.25" y="-17780"/><use xlink:href="#SWbtPaT-oyauRIl65zH8_pad-17" x="219075" y="-9525"/><use xlink:href="#SWbtPaT-oyauRIl65zH8_pad-18" x="213995" y="-9525"/><use xlink:href="#SWbtPaT-oyauRIl65zH8_pad-18" x="224155" y="-9525"/><use xlink:href="#SWbtPaT-oyauRIl65zH8_pad-17" x="200025" y="-9525"/><use xlink:href="#SWbtPaT-oyauRIl65zH8_pad-18" x="194945" y="-9525"/><use xlink:href="#SWbtPaT-oyauRIl65zH8_pad-18" x="205105" y="-9525"/><use xlink:href="#SWbtPaT-oyauRIl65zH8_pad-17" x="180975" y="-9525"/><use xlink:href="#SWbtPaT-oyauRIl65zH8_pad-18" x="175895" y="-9525"/><use xlink:href="#SWbtPaT-oyauRIl65zH8_pad-18" x="186055" y="-9525"/><use xlink:href="#SWbtPaT-oyauRIl65zH8_pad-17" x="161925" y="-9525"/><use xlink:href="#SWbtPaT-oyauRIl65zH8_pad-18" x="156845" y="-9525"/><use xlink:href="#SWbtPaT-oyauRIl65zH8_pad-18" x="167005" y="-9525"/><use xlink:href="#SWbtPaT-oyauRIl65zH8_pad-17" x="142875" y="-9525"/><use xlink:href="#SWbtPaT-oyauRIl65zH8_pad-18" x="137795" y="-9525"/><use xlink:href="#SWbtPaT-oyauRIl65zH8_pad-18" x="147955" y="-9525"/><use xlink:href="#SWbtPaT-oyauRIl65zH8_pad-17" x="123825" y="-9525"/><use xlink:href="#SWbtPaT-oyauRIl65zH8_pad-18" x="128905" y="-9525"/><use xlink:href="#SWbtPaT-oyauRIl65zH8_pad-18" x="118745" y="-9525"/><use xlink:href="#SWbtPaT-oyauRIl65zH8_pad-17" x="104775" y="-9525"/><use xlink:href="#SWbtPaT-oyauRIl65zH8_pad-18" x="99695" y="-9525"/><use xlink:href="#SWbtPaT-oyauRIl65zH8_pad-18" x="109855" y="-9525"/><use xlink:href="#SWbtPaT-oyauRIl65zH8_pad-17" x="85725" y="-9525"/><use xlink:href="#SWbtPaT-oyauRIl65zH8_pad-18" x="80645" y="-9525"/><use xlink:href="#SWbtPaT-oyauRIl65zH8_pad-18" x="90805" y="-9525"/><use xlink:href="#SWbtPaT-oyauRIl65zH8_pad-17" x="66675" y="-9525"/><use xlink:href="#SWbtPaT-oyauRIl65zH8_pad-18" x="61595" y="-9525"/><use xlink:href="#SWbtPaT-oyauRIl65zH8_pad-18" x="71755" y="-9525"/><use xlink:href="#SWbtPaT-oyauRIl65zH8_pad-17" x="47625" y="-9525"/><use xlink:href="#SWbtPaT-oyauRIl65zH8_pad-18" x="42545" y="-9525"/><use xlink:href="#SWbtPaT-oyauRIl65zH8_pad-18" x="52705" y="-9525"/><use xlink:href="#SWbtPaT-oyauRIl65zH8_pad-17" x="28575" y="-9525"/><use xlink:href="#SWbtPaT-oyauRIl65zH8_pad-18" x="23495" y="-9525"/><use xlink:href="#SWbtPaT-oyauRIl65zH8_pad-18" x="33655" y="-9525"/><use xlink:href="#SWbtPaT-oyauRIl65zH8_pad-17" x="9525" y="-9525"/><use xlink:href="#SWbtPaT-oyauRIl65zH8_pad-18" x="4445" y="-9525"/><use xlink:href="#SWbtPaT-oyauRIl65zH8_pad-18" x="14605" y="-9525"/></g><g id="sB6OorTWbbyhIPNyWCnF_top_copper"><use xlink:href="#ZfbqBI2GfqfQKM-TQdBU_pad-10" x="245625" y="-12025"/><use xlink:href="#ZfbqBI2GfqfQKM-TQdBU_pad-11" x="245625" y="-9525"/><use xlink:href="#ZfbqBI2GfqfQKM-TQdBU_pad-11" x="245625" y="-7025"/><use xlink:href="#ZfbqBI2GfqfQKM-TQdBU_pad-11" x="231125" y="-12025"/><use xlink:href="#ZfbqBI2GfqfQKM-TQdBU_pad-11" x="231125" y="-7025"/><use xlink:href="#ZfbqBI2GfqfQKM-TQdBU_pad-12" x="119505" y="-1700"/><use xlink:href="#ZfbqBI2GfqfQKM-TQdBU_pad-12" x="128145" y="-1700"/><use xlink:href="#ZfbqBI2GfqfQKM-TQdBU_pad-13" x="119505" y="2480"/><use xlink:href="#ZfbqBI2GfqfQKM-TQdBU_pad-13" x="128145" y="2480"/><use xlink:href="#ZfbqBI2GfqfQKM-TQdBU_pad-14" x="130810" y="-19939"/><use xlink:href="#ZfbqBI2GfqfQKM-TQdBU_pad-15" x="133350" y="-19939"/><use xlink:href="#ZfbqBI2GfqfQKM-TQdBU_pad-15" x="130683" y="-17399"/><use xlink:href="#ZfbqBI2GfqfQKM-TQdBU_pad-15" x="133223" y="-17399"/><use xlink:href="#ZfbqBI2GfqfQKM-TQdBU_pad-15" x="130810" y="-14859"/><use xlink:href="#ZfbqBI2GfqfQKM-TQdBU_pad-15" x="133350" y="-14859"/><use xlink:href="#ZfbqBI2GfqfQKM-TQdBU_pad-16" x="238283.75" y="-61595"/><use xlink:href="#ZfbqBI2GfqfQKM-TQdBU_pad-16" x="231933.75" y="-64135"/><use xlink:href="#ZfbqBI2GfqfQKM-TQdBU_pad-16" x="216852.5" y="-61595"/><use xlink:href="#ZfbqBI2GfqfQKM-TQdBU_pad-16" x="210502.5" y="-64135"/><use xlink:href="#ZfbqBI2GfqfQKM-TQdBU_pad-16" x="195421.25" y="-61595"/><use xlink:href="#ZfbqBI2GfqfQKM-TQdBU_pad-16" x="189071.25" y="-64135"/><use xlink:href="#ZfbqBI2GfqfQKM-TQdBU_pad-16" x="173990" y="-61595"/><use xlink:href="#ZfbqBI2GfqfQKM-TQdBU_pad-16" x="167640" y="-64135"/><use xlink:href="#ZfbqBI2GfqfQKM-TQdBU_pad-16" x="154940" y="-61595"/><use xlink:href="#ZfbqBI2GfqfQKM-TQdBU_pad-16" x="148590" y="-64135"/><use xlink:href="#ZfbqBI2GfqfQKM-TQdBU_pad-16" x="143033.75" y="-61595"/><use xlink:href="#ZfbqBI2GfqfQKM-TQdBU_pad-16" x="136683.75" y="-64135"/><use xlink:href="#ZfbqBI2GfqfQKM-TQdBU_pad-16" x="120015" y="-64135"/><use xlink:href="#ZfbqBI2GfqfQKM-TQdBU_pad-16" x="126365" y="-61595"/><use xlink:href="#ZfbqBI2GfqfQKM-TQdBU_pad-16" x="97790" y="-61595"/><use xlink:href="#ZfbqBI2GfqfQKM-TQdBU_pad-16" x="91440" y="-64135"/><use xlink:href="#ZfbqBI2GfqfQKM-TQdBU_pad-16" x="95408.75" y="-61595"/><use xlink:href="#ZfbqBI2GfqfQKM-TQdBU_pad-16" x="89058.75" y="-64135"/><use xlink:href="#ZfbqBI2GfqfQKM-TQdBU_pad-16" x="57308.75" y="-61595"/><use xlink:href="#ZfbqBI2GfqfQKM-TQdBU_pad-16" x="50958.75" y="-64135"/><use xlink:href="#ZfbqBI2GfqfQKM-TQdBU_pad-16" x="35877.5" y="-61595"/><use xlink:href="#ZfbqBI2GfqfQKM-TQdBU_pad-16" x="29527.5" y="-64135"/><use xlink:href="#ZfbqBI2GfqfQKM-TQdBU_pad-16" x="14446.25" y="-61595"/><use xlink:href="#ZfbqBI2GfqfQKM-TQdBU_pad-16" x="8096.25" y="-64135"/><use xlink:href="#ZfbqBI2GfqfQKM-TQdBU_pad-16" x="238283.75" y="-42545"/><use xlink:href="#ZfbqBI2GfqfQKM-TQdBU_pad-16" x="231933.75" y="-45085"/><use xlink:href="#ZfbqBI2GfqfQKM-TQdBU_pad-16" x="216852.5" y="-42545"/><use xlink:href="#ZfbqBI2GfqfQKM-TQdBU_pad-16" x="210502.5" y="-45085"/><use xlink:href="#ZfbqBI2GfqfQKM-TQdBU_pad-16" x="197802.5" y="-42545"/><use xlink:href="#ZfbqBI2GfqfQKM-TQdBU_pad-16" x="191452.5" y="-45085"/><use xlink:href="#ZfbqBI2GfqfQKM-TQdBU_pad-16" x="178752.5" y="-42545"/><use xlink:href="#ZfbqBI2GfqfQKM-TQdBU_pad-16" x="172402.5" y="-45085"/><use xlink:href="#ZfbqBI2GfqfQKM-TQdBU_pad-16" x="159702.5" y="-42545"/><use xlink:href="#ZfbqBI2GfqfQKM-TQdBU_pad-16" x="153352.5" y="-45085"/><use xlink:href="#ZfbqBI2GfqfQKM-TQdBU_pad-16" x="140652.5" y="-42545"/><use xlink:href="#ZfbqBI2GfqfQKM-TQdBU_pad-16" x="134302.5" y="-45085"/><use xlink:href="#ZfbqBI2GfqfQKM-TQdBU_pad-16" x="121602.5" y="-42545"/><use xlink:href="#ZfbqBI2GfqfQKM-TQdBU_pad-16" x="115252.5" y="-45085"/><use xlink:href="#ZfbqBI2GfqfQKM-TQdBU_pad-16" x="102552.5" y="-42545"/><use xlink:href="#ZfbqBI2GfqfQKM-TQdBU_pad-16" x="96202.5" y="-45085"/><use xlink:href="#ZfbqBI2GfqfQKM-TQdBU_pad-16" x="83502.5" y="-42545"/><use xlink:href="#ZfbqBI2GfqfQKM-TQdBU_pad-16" x="77152.5" y="-45085"/><use xlink:href="#ZfbqBI2GfqfQKM-TQdBU_pad-16" x="64452.5" y="-42545"/><use xlink:href="#ZfbqBI2GfqfQKM-TQdBU_pad-16" x="58102.5" y="-45085"/><use xlink:href="#ZfbqBI2GfqfQKM-TQdBU_pad-16" x="45402.5" y="-42545"/><use xlink:href="#ZfbqBI2GfqfQKM-TQdBU_pad-16" x="39052.5" y="-45085"/><use xlink:href="#ZfbqBI2GfqfQKM-TQdBU_pad-16" x="19208.75" y="-42545"/><use xlink:href="#ZfbqBI2GfqfQKM-TQdBU_pad-16" x="12858.75" y="-45085"/><use xlink:href="#ZfbqBI2GfqfQKM-TQdBU_pad-16" x="233521.25" y="-23495"/><use xlink:href="#ZfbqBI2GfqfQKM-TQdBU_pad-16" x="227171.25" y="-26035"/><use xlink:href="#ZfbqBI2GfqfQKM-TQdBU_pad-16" x="207327.5" y="-23495"/><use xlink:href="#ZfbqBI2GfqfQKM-TQdBU_pad-16" x="200977.5" y="-26035"/><use xlink:href="#ZfbqBI2GfqfQKM-TQdBU_pad-16" x="188277.5" y="-23495"/><use xlink:href="#ZfbqBI2GfqfQKM-TQdBU_pad-16" x="181927.5" y="-26035"/><use xlink:href="#ZfbqBI2GfqfQKM-TQdBU_pad-16" x="169227.5" y="-23495"/><use xlink:href="#ZfbqBI2GfqfQKM-TQdBU_pad-16" x="162877.5" y="-26035"/><use xlink:href="#ZfbqBI2GfqfQKM-TQdBU_pad-16" x="150177.5" y="-23495"/><use xlink:href="#ZfbqBI2GfqfQKM-TQdBU_pad-16" x="143827.5" y="-26035"/><use xlink:href="#ZfbqBI2GfqfQKM-TQdBU_pad-16" x="131127.5" y="-23495"/><use xlink:href="#ZfbqBI2GfqfQKM-TQdBU_pad-16" x="124777.5" y="-26035"/><use xlink:href="#ZfbqBI2GfqfQKM-TQdBU_pad-16" x="112077.5" y="-23495"/><use xlink:href="#ZfbqBI2GfqfQKM-TQdBU_pad-16" x="105727.5" y="-26035"/><use xlink:href="#ZfbqBI2GfqfQKM-TQdBU_pad-16" x="93027.5" y="-23495"/><use xlink:href="#ZfbqBI2GfqfQKM-TQdBU_pad-16" x="86677.5" y="-26035"/><use xlink:href="#ZfbqBI2GfqfQKM-TQdBU_pad-16" x="73977.5" y="-23495"/><use xlink:href="#ZfbqBI2GfqfQKM-TQdBU_pad-16" x="67627.5" y="-26035"/><use xlink:href="#ZfbqBI2GfqfQKM-TQdBU_pad-16" x="54927.5" y="-23495"/><use xlink:href="#ZfbqBI2GfqfQKM-TQdBU_pad-16" x="48577.5" y="-26035"/><use xlink:href="#ZfbqBI2GfqfQKM-TQdBU_pad-16" x="35877.5" y="-23495"/><use xlink:href="#ZfbqBI2GfqfQKM-TQdBU_pad-16" x="29527.5" y="-26035"/><use xlink:href="#ZfbqBI2GfqfQKM-TQdBU_pad-16" x="14446.25" y="-23495"/><use xlink:href="#ZfbqBI2GfqfQKM-TQdBU_pad-16" x="8096.25" y="-26035"/><use xlink:href="#ZfbqBI2GfqfQKM-TQdBU_pad-16" x="240665" y="-4445"/><use xlink:href="#ZfbqBI2GfqfQKM-TQdBU_pad-16" x="234315" y="-6985"/><use xlink:href="#ZfbqBI2GfqfQKM-TQdBU_pad-16" x="231140" y="-4445"/><use xlink:href="#ZfbqBI2GfqfQKM-TQdBU_pad-16" x="224790" y="-6985"/><use xlink:href="#ZfbqBI2GfqfQKM-TQdBU_pad-16" x="221615" y="-4445"/><use xlink:href="#ZfbqBI2GfqfQKM-TQdBU_pad-16" x="215265" y="-6985"/><use xlink:href="#ZfbqBI2GfqfQKM-TQdBU_pad-16" x="202565" y="-4445"/><use xlink:href="#ZfbqBI2GfqfQKM-TQdBU_pad-16" x="196215" y="-6985"/><use xlink:href="#ZfbqBI2GfqfQKM-TQdBU_pad-16" x="183515" y="-4445"/><use xlink:href="#ZfbqBI2GfqfQKM-TQdBU_pad-16" x="177165" y="-6985"/><use xlink:href="#ZfbqBI2GfqfQKM-TQdBU_pad-16" x="164465" y="-4445"/><use xlink:href="#ZfbqBI2GfqfQKM-TQdBU_pad-16" x="158115" y="-6985"/><use xlink:href="#ZfbqBI2GfqfQKM-TQdBU_pad-16" x="145415" y="-4445"/><use xlink:href="#ZfbqBI2GfqfQKM-TQdBU_pad-16" x="139065" y="-6985"/><use xlink:href="#ZfbqBI2GfqfQKM-TQdBU_pad-16" x="121285" y="-14605"/><use xlink:href="#ZfbqBI2GfqfQKM-TQdBU_pad-16" x="127635" y="-12065"/><use xlink:href="#ZfbqBI2GfqfQKM-TQdBU_pad-16" x="107315" y="-4445"/><use xlink:href="#ZfbqBI2GfqfQKM-TQdBU_pad-16" x="100965" y="-6985"/><use xlink:href="#ZfbqBI2GfqfQKM-TQdBU_pad-16" x="88265" y="-4445"/><use xlink:href="#ZfbqBI2GfqfQKM-TQdBU_pad-16" x="81915" y="-6985"/><use xlink:href="#ZfbqBI2GfqfQKM-TQdBU_pad-16" x="69215" y="-4445"/><use xlink:href="#ZfbqBI2GfqfQKM-TQdBU_pad-16" x="62865" y="-6985"/><use xlink:href="#ZfbqBI2GfqfQKM-TQdBU_pad-16" x="50165" y="-4445"/><use xlink:href="#ZfbqBI2GfqfQKM-TQdBU_pad-16" x="43815" y="-6985"/><use xlink:href="#ZfbqBI2GfqfQKM-TQdBU_pad-16" x="31115" y="-4445"/><use xlink:href="#ZfbqBI2GfqfQKM-TQdBU_pad-16" x="24765" y="-6985"/><use xlink:href="#ZfbqBI2GfqfQKM-TQdBU_pad-16" x="12065" y="-4445"/><use xlink:href="#ZfbqBI2GfqfQKM-TQdBU_pad-16" x="5715" y="-6985"/><use xlink:href="#ZfbqBI2GfqfQKM-TQdBU_pad-17" x="8763" y="-36322"/><use xlink:href="#ZfbqBI2GfqfQKM-TQdBU_pad-17" x="29527.5" y="-35605.156"/><use xlink:href="#ZfbqBI2GfqfQKM-TQdBU_pad-17" x="48895" y="-35205.146"/><use xlink:href="#ZfbqBI2GfqfQKM-TQdBU_pad-17" x="68326" y="-34805.136"/><use xlink:href="#ZfbqBI2GfqfQKM-TQdBU_pad-17" x="87376" y="-34405.126"/><use xlink:href="#ZfbqBI2GfqfQKM-TQdBU_pad-17" x="106426" y="-34005.116"/><use xlink:href="#ZfbqBI2GfqfQKM-TQdBU_pad-17" x="121721.58" y="-36369.771"/><use xlink:href="#ZfbqBI2GfqfQKM-TQdBU_pad-17" x="122971.465" y="-37191.073"/><use xlink:href="#ZfbqBI2GfqfQKM-TQdBU_pad-17" x="115252.5" y="-33605.106"/><use xlink:href="#ZfbqBI2GfqfQKM-TQdBU_pad-17" x="144526" y="-33605.106"/><use xlink:href="#ZfbqBI2GfqfQKM-TQdBU_pad-17" x="163576" y="-34005.116"/><use xlink:href="#ZfbqBI2GfqfQKM-TQdBU_pad-17" x="182626" y="-34405.126"/><use xlink:href="#ZfbqBI2GfqfQKM-TQdBU_pad-17" x="201676" y="-34805.136"/><use xlink:href="#ZfbqBI2GfqfQKM-TQdBU_pad-17" x="212725" y="-35205.146"/><use xlink:href="#ZfbqBI2GfqfQKM-TQdBU_pad-17" x="227838" y="-35605.156"/><use xlink:href="#ZfbqBI2GfqfQKM-TQdBU_pad-17" x="115071" y="-11929"/><use xlink:href="#ZfbqBI2GfqfQKM-TQdBU_pad-17" x="130420" y="-11929"/><use xlink:href="#ZfbqBI2GfqfQKM-TQdBU_pad-17" x="136656.758" y="-32253.453"/><use xlink:href="#ZfbqBI2GfqfQKM-TQdBU_pad-17" x="133867" y="-11929"/><use xlink:href="#ZfbqBI2GfqfQKM-TQdBU_pad-17" x="119163" y="-30988"/><use xlink:href="#ZfbqBI2GfqfQKM-TQdBU_pad-17" x="135395" y="-30975"/><use xlink:href="#ZfbqBI2GfqfQKM-TQdBU_pad-17" x="129413" y="-49276"/><use xlink:href="#ZfbqBI2GfqfQKM-TQdBU_pad-17" x="130823" y="-69075"/><use xlink:href="#ZfbqBI2GfqfQKM-TQdBU_pad-17" x="132334" y="-10287"/><use xlink:href="#ZfbqBI2GfqfQKM-TQdBU_pad-17" x="119634.008" y="-36068"/><use xlink:href="#ZfbqBI2GfqfQKM-TQdBU_pad-17" x="122809" y="-32258"/><use xlink:href="#ZfbqBI2GfqfQKM-TQdBU_pad-17" x="137795" y="-35814"/><use xlink:href="#ZfbqBI2GfqfQKM-TQdBU_pad-17" x="137356.758" y="-29464"/><use xlink:href="#ZfbqBI2GfqfQKM-TQdBU_pad-17" x="121285" y="-33782"/><use xlink:href="#ZfbqBI2GfqfQKM-TQdBU_pad-17" x="126910" y="-15330"/><use xlink:href="#ZfbqBI2GfqfQKM-TQdBU_pad-17" x="126847.869" y="-22939.325"/><use xlink:href="#ZfbqBI2GfqfQKM-TQdBU_pad-17" x="131125.034" y="-26376.083"/><use xlink:href="#ZfbqBI2GfqfQKM-TQdBU_pad-17" x="246725.01" y="-14401.475"/><use xlink:href="#ZfbqBI2GfqfQKM-TQdBU_pad-17" x="133100.653" y="-42676.653"/><use xlink:href="#ZfbqBI2GfqfQKM-TQdBU_pad-17" x="129413" y="-45974"/><use xlink:href="#ZfbqBI2GfqfQKM-TQdBU_pad-17" x="127000" y="-44577"/><use xlink:href="#ZfbqBI2GfqfQKM-TQdBU_pad-17" x="125349" y="-31369"/><use xlink:href="#ZfbqBI2GfqfQKM-TQdBU_pad-17" x="122565.459" y="-38104.957"/><use xlink:href="#ZfbqBI2GfqfQKM-TQdBU_pad-17" x="136779" y="-37973"/><use xlink:href="#ZfbqBI2GfqfQKM-TQdBU_pad-17" x="132334" y="-30353"/><use xlink:href="#ZfbqBI2GfqfQKM-TQdBU_pad-17" x="132319.05" y="-27977.246"/><use xlink:href="#ZfbqBI2GfqfQKM-TQdBU_pad-17" x="122174" y="-3940.002"/><use xlink:href="#ZfbqBI2GfqfQKM-TQdBU_pad-17" x="120015" y="-3940.002"/><use xlink:href="#ZfbqBI2GfqfQKM-TQdBU_pad-17" x="125471.34" y="-3932.34"/><use xlink:href="#ZfbqBI2GfqfQKM-TQdBU_pad-17" x="127460.373" y="-3993.932"/><use xlink:href="#ZfbqBI2GfqfQKM-TQdBU_pad-17" x="131641.055" y="-27242.177"/><path d="M 6350 -24288.75 8096.25 -26035 M 6350 -7620 6350 -24288.75 M 5715 -6985 6350 -7620 M 8763 -40989.25 12858.75 -45085 M 8763 -26701.75 8763 -40989.25 M 8096.25 -26035 8763 -26701.75 M 13462 -58769.25 8096.25 -64135 M 13462 -45688.25 13462 -58769.25 M 12858.75 -45085 13462 -45688.25 M 25400 -21907.5 29527.5 -26035 M 25400 -7620 25400 -21907.5 M 24765 -6985 25400 -7620 M 29527.5 -26035 29527.5 -64135 M 44450 -21907.5 48577.5 -26035 M 43815 -6985 44450 -7620 44450 -21907.5 M 49276 -34861.5 39052.5 -45085 M 49276 -26733.5 49276 -34861.5 M 48577.5 -26035 49276 -26733.5 M 39751 -52927.25 50958.75 -64135 M 39751 -45783.5 39751 -52927.25 M 39052.5 -45085 39751 -45783.5 M 67627.5 -26035 68326 -26733.5 68326 -34861.5 58102.5 -45085 M 62865 -6985 63500 -7620 M 63500 -21907.5 67627.5 -26035 M 63500 -7620 63500 -21907.5 M 86677.5 -26035 87376 -26733.5 87376 -34861.5 77152.5 -45085 M 81915 -6985 82550 -7620 M 82550 -21907.5 86677.5 -26035 M 82550 -7620 82550 -21907.5 M 105727.5 -26035 106426 -26733.5 M 106426 -34861.5 96202.5 -45085 M 100965 -6985 101600 -7620 M 101600 -21907.5 105727.5 -26035 M 101600 -7620 101600 -21907.5 M 91440 -48256.51 91440 -64135 M 94611.51 -45085 91440 -48256.51 M 96202.5 -45085 94611.51 -45085 M 106426 -34163 106426 -34861.5 M 106426 -26733.5 106426 -34163 M 115252.5 -33210.5 115252.5 -45085 M 124777.5 -26035 122428 -26035" fill="none" stroke-width="250"/><path d="M 122542.882 -37191.073 122971.465 -37191.073 M 121721.58 -36369.771 122542.882 -37191.073" fill="none" stroke-width="200"/><path d="M 115951 -32512 115252.5 -33210.5 M 122428 -26035 115951 -32512 M 143827.5 -26035 144526 -26733.5 144526 -34861.5 134302.5 -45085 M 139065 -6985 139700 -7620 M 139700 -21907.5 143827.5 -26035 M 139700 -7620 139700 -21907.5 M 162877.5 -26035 163576 -26733.5 163576 -34861.5 153352.5 -45085 M 158115 -6985 158750 -7620 M 158750 -21907.5 162877.5 -26035 M 158750 -7620 158750 -21907.5 M 148590 -48256.51 148590 -64135 M 151761.51 -45085 148590 -48256.51 M 153352.5 -45085 151761.51 -45085 M 181927.5 -26035 182626 -26733.5 182626 -34861.5 172402.5 -45085 M 177165 -6985 177800 -7620 M 177800 -21907.5 181927.5 -26035 M 177800 -7620 177800 -21907.5 M 167640 -48256.51 167640 -64135 M 170811.51 -45085 167640 -48256.51 M 172402.5 -45085 170811.51 -45085 M 200977.5 -26035 201676 -26733.5 201676 -34861.5 191452.5 -45085 M 196215 -6985 196850 -7620 M 196850 -21907.5 200977.5 -26035 M 196850 -7620 196850 -21907.5 M 192024 -61182.25 189071.25 -64135 M 192024 -45656.5 192024 -61182.25 M 191452.5 -45085 192024 -45656.5 M 212725 -42862.5 210502.5 -45085 M 212725 -17413.388 212725 -42862.5 M 215900 -14238.388 212725 -17413.388 M 215900 -7620 215900 -14238.388 M 215265 -6985 215900 -7620 M 210502.5 -45085 210502.5 -64135 M 225806 -24669.75 227171.25 -26035 M 225806 -8001 225806 -24669.75 M 224790 -6985 225806 -8001 M 227838 -40989.25 231933.75 -45085 M 227838 -26701.75 227838 -40989.25 M 227171.25 -26035 227838 -26701.75 M 231933.75 -45085 231933.75 -64135 M 130420 -12328 130420 -11929 M 128651 -14097 130420 -12328 M 123190 -14097 128651 -14097 M 122047 -12954 123190 -14097 M 116096 -12954 122047 -12954 M 115071 -11929 116096 -12954" fill="none" stroke-width="250"/><path d="M 136656.758 -14718.758 133867 -11929 M 136656.758 -32253.453 136656.758 -14718.758" fill="none" stroke-width="200"/><path d="M 135115 -30975 135395 -30975 M 133985 -29845 135115 -30975 M 129572.597 -26256.099 133161.498 -29845 M 127602.403 -26256.099 129572.597 -26256.099 M 133161.498 -29845 133985 -29845 M 122870.502 -30988 127602.403 -26256.099 M 119163 -30988 122870.502 -30988" fill="none" stroke-width="250"/><path d="M 130881.401 -69016.599 130823 -69075 M 129413 -49276 130881.401 -50744.401 130881.401 -69016.599" fill="none" stroke-width="200"/><path d="M 132334 -11088.002 132334 -10287 M 128817.002 -14605 132334 -11088.002 M 121285 -14605 128817.002 -14605 M 232664 -5969 231140 -4445 M 232664 -7747 232664 -5969 M 231125 -9286 232664 -7747 M 231125 -12025 231125 -9286" fill="none" stroke-width="250"/><path d="M 137795 -35814 137795 -33543.107 M 137795 -29902.242 137356.758 -29464 M 137795 -33543.107 137795 -29902.242 M 121285 -33782 122809 -32258 M 119634.008 -35432.992 121285 -33782 M 119634.008 -36068 119634.008 -35432.992 M 127127 -15113 126910 -15330 M 128910.056 -15113 127127 -15113 M 130314.057 -13708.999 128910.056 -15113 M 132199.999 -13708.999 130314.057 -13708.999 M 133350 -14859 132199.999 -13708.999 M 126847.869 -22939.325 126856.877 -22939.325 M 130293.635 -26376.083 131125.034 -26376.083 M 126856.877 -22939.325 130293.635 -26376.083 M 247125.009 -11025.009 245625 -9525 M 247125.009 -14001.476 247125.009 -11025.009 M 246725.01 -14401.475 247125.009 -14001.476 M 133096 -42672 132681.054 -42672 M 133100.653 -42676.653 133096 -42672 M 129413 -45940.054 129413 -45974 M 132681.054 -42672 129413 -45940.054" fill="none" stroke-width="200"/><path d="M 122565.459 -40142.459 127000 -44577 M 122565.459 -38104.957 122565.459 -40142.459 M 125431.191 -31286.809 125349 -31369 M 130194.386 -31286.809 125431.191 -31286.809 M 131128.195 -30353 130194.386 -31286.809 M 130175 -44577 136779 -37973 M 128651 -44577 130175 -44577 M 127000 -44577 128651 -44577 M 136779 -33401 136334.5 -32956.5 M 136779 -37973 136779 -33401 M 136334.5 -32956.5 133731 -30353 M 132334 -30353 131128.195 -30353 M 133731 -30353 132334 -30353 M 133350 -26946.296 133350 -19939 M 132319.05 -27977.246 133350 -26946.296 M 122174 -3940.002 120015 -3940.002 M 127398.781 -3932.34 127460.373 -3993.932 M 125471.34 -3932.34 127398.781 -3932.34" fill="none" stroke-width="250"/><path d="M 132072.999 -16121.999 130810 -14859 M 132842 -21336 132072.999 -20566.999 M 132842 -26670 132842 -21336 M 132269.823 -27242.177 132842 -26670 M 132072.999 -20566.999 132072.999 -16121.999 M 131641.055 -27242.177 132269.823 -27242.177" fill="none" stroke-width="200"/></g><g id="sB6OorTWbbyhIPNyWCnF_top_silkscreen"><path d="M 125130.546 -15284.186 126173.726 -15422.948 127164.61 -15669.258 128149.862 -16033.681 128791.109 -16329.867 129927.746 -16979.697 130985.573 -17761.195 131944.778 -18655.654 132785.544 -19644.366 133488.058 -20708.621 133555.217 -20828.003 133708.701 -21104.396 133827.433 -21316.179 133890.431 -21425.986 133894.924 -21433.011 133980.669 -21455.828 134195.583 -21497.547 134501.522 -21551.007 134680.177 -21580.462 135616.586 -21773.214 136413.124 -22024.617 137065.252 -22331.949 137568.428 -22692.486 137918.113 -23103.507 138109.766 -23562.29 138126.665 -23646.96 138123.821 -24129.063 137961.397 -24627.463 137647.174 -25132.695 137188.931 -25635.295 136594.452 -26125.797 135871.516 -26594.736 135561.677 -26766.942 134907.789 -27115.348 134765.254 -27945.504 134456.868 -29253.92 133996.829 -30499.389 133394.588 -31670.638 132659.594 -32756.395 131801.297 -33745.387 130829.147 -34626.343 129752.593 -35387.991 128581.087 -36019.058 127691.191 -36383.702 126821.757 -36641.561 125855.235 -36834.738 124848.443 -36956.8 123858.199 -37001.313 122941.321 -36961.845 122760.74 -36941.954 121554.378 -36717.311 120344.665 -36349.311 119180.915 -35855.535 118224.046 -35324.695 117803.291 -35042.101 117363.325 -34714.714 116931.449 -34366.217 116534.963 -34020.296 116201.168 -33700.636 115957.365 -33430.922 115840.347 -33256.684 115756.209 -33050.857 115753.675 -32893.781 115833.373 -32691.371 115844.273 -32668.403 116048.461 -32389.945 116314.061 -32260.468 116621.144 -32289.223 116643.574 -32297.361 116802.006 -32392.795 117041.36 -32578.62 117323.983 -32824.342 117511.407 -33000.144 118449.343 -33791.083 119489.588 -34453.59 120612.416 -34976.628 121636.591 -35308.451 122328.188 -35448.383 123119.074 -35541.247 123944.919 -35583.595 124741.394 -35571.98 125397.328 -35510.025 126605.405 -35249.461 127761.452 -34834.131 128851.411 -34274.29 129861.225 -33580.194 130776.837 -32762.096 131584.19 -31830.253 132269.227 -30794.918 132529.308 -30307.138 132678.285 -29981.344 132833.987 -29598.153 132985.544 -29190.224 133122.085 -28790.218 133232.741 -28430.796 133306.642 -28144.616 133332.918 -27964.34 133323.082 -27922.113 133229.181 -27929 133035.203 -27991.242 132911.557 -28040.793 132649.657 -28144.417 132295.435 -28274.303 131917.902 -28405.278 131851.687 -28427.395 131163.634 -28655.608 131110.076 -29059.348 131032.086 -29367.385 130889.723 -29718.078 130782.129 -29920.242 130386.151 -30430.214 129904.489 -30809.43 129362.102 -31055.323 128783.944 -31165.326 128194.973 -31136.872 127620.145 -30967.396 127084.416 -30654.33 126734.96 -30336.461 126345.933 -29915.51 124682.206 -30211.008 123436.985 -30421.225 122304.037 -30587.021 121233.661 -30713.356 120176.155 -30805.191 119081.82 -30867.483 117900.955 -30905.193 117680.74 -30909.652 116953.876 -30921.832 116365.138 -30927.386 115883.406 -30925.138 115477.561 -30913.914 115116.484 -30892.538 114769.054 -30859.835 114404.153 -30814.63 114124.74 -30775.365 113089.933 -30598.813 112214.819 -30390.499 111492.117 -30146.826 110914.545 -29864.197 110474.823 -29539.016 110165.669 -29167.687 109979.801 -28746.614 109973.858 -28725.099 109931.626 -28262.749 110029.386 -27776.716 110251.462 -27309.963 110582.181 -26905.451 110664.599 -26831.902 110961.076 -26653.776 111243.234 -26640.693 111530.509 -26791.761 111530.989 -26792.139 111717.265 -27031.162 111747.199 -27327.007 111621.055 -27672.085 111493.634 -27868.778 111349.311 -28098.7 111268.235 -28294.927 111261.386 -28369.313 111371.885 -28543.033 111620.77 -28727.465 111978.82 -28909.216 112416.814 -29074.893 112905.528 -29211.104 113246.622 -29279.182 113596.171 -29337.402 113442.086 -28690.664 113207.09 -27373.653 113135.106 -26065.797 113138.408 -26017.699 114554.792 -26017.699 114566.776 -26816.504 114634.269 -27533.904 114667.747 -27735.468 114805.318 -28390.115 114941.859 -28881.147 115079.38 -29214.255 115219.888 -29395.132 115262.181 -29420.235 115403.995 -29443.272 115688.609 -29458.273 116089.707 -29465.739 116580.972 -29466.169 117136.085 -29460.065 117728.729 -29447.927 118332.588 -29430.257 118921.344 -29407.554 119468.68 -29380.32 119948.278 -29349.055 120220.74 -29325.897 120897.021 -29253.383 121682.195 -29157.157 122524.197 -29044.53 123370.959 -28922.813 124170.416 -28799.316 124870.501 -28681.351 125071.121 -28644.831 125935.095 -28483.818 127523.62 -28483.818 127544.531 -28869.901 127619.986 -29083.218 127853.744 -29396.193 128179.264 -29595.293 128555.078 -29671.159 128939.718 -29614.434 129248.268 -29450.703 129518.227 -29155.721 129648.675 -28815.952 129651.25 -28462.956 129537.588 -28128.29 129319.328 -27843.512 129008.104 -27640.18 128615.555 -27549.851 128546.643 -27547.994 128165.54 -27623.321 127854.451 -27826.851 127633.702 -28124.909 127523.62 -28483.818 125935.095 -28483.818 126045.938 -28463.161 126098.745 -28111.018 126208.799 -27728.637 126409.935 -27316.624 126664.082 -26940.908 126931.656 -26668.573 127432.234 -26353.251 127950.763 -26173.902 128545.505 -26111.123 128607.283 -26110.52 129245.021 -26174.802 129793.061 -26377.016 130270.343 -26725.199 130422.278 -26880.928 130728.765 -27220.173 131549.586 -26947.909 132089.106 -26757.911 132691.374 -26527.418 133318.661 -26272.546 133933.234 -26009.413 134497.364 -25754.136 134973.32 -25522.83 135297.977 -25346.778 135665.304 -25109.485 136026.259 -24841.143 136348.91 -24569.259 136601.32 -24321.338 136751.557 -24124.886 136773.265 -24076.057 136780.482 -23862.224 136649.63 -23666.642 136368.632 -23475.5 136158.572 -23373.007 135895.464 -23268.495 135572.799 -23159.642 135231.377 -23057.649 134912 -22973.715 134655.467 -22919.041 134502.581 -22904.828 134480.225 -22912.287 134485.892 -23002.629 134532.186 -23202.332 134577.026 -23360.479 134658.414 -23781.942 134613.05 -24106.635 134436.855 -24354.512 134361.697 -24414.171 134067.925 -24566.933 133811.451 -24573.558 133585.502 -24428.763 133383.307 -24127.269 133198.092 -23663.793 133134.556 -23457.267 132710.379 -22291.673 132140.332 -21200.722 131435.782 -20196.213 130608.1 -19289.943 129668.652 -18493.711 128628.808 -17819.314 127499.937 -17278.55 127003.396 -17094.591 125900.583 -16803.112 124739.323 -16649.741 123555.305 -16633.985 122384.213 -16755.348 121261.735 -17013.337 120762.6 -17181.092 119623.437 -17695.02 118568.336 -18347.869 117609.173 -19126.55 116757.825 -20017.978 116026.168 -21009.064 115426.076 -22086.721 114969.427 -23237.863 114828.38 -23720.568 114687.945 -24410.959 114595.965 -25196.26 114554.792 -26017.699 113138.408 -26017.699 113225.794 -24745.075 113368.107 -23887.543 113711.295 -22608.319 114205.801 -21392.592 114841.858 -20251.643 115609.703 -19196.758 116499.571 -18239.218 117501.695 -17390.306 118606.311 -16661.307 119803.654 -16063.503 120315.292 -15860.349 121241.526 -15566.137 122174.121 -15371.239 123165.863 -15266.773 123988.407 -15242.404 125130.546 -15284.186"/><path d="M 125130.546 -15284.186 126173.726 -15422.948 127164.61 -15669.258 128149.862 -16033.681 128791.109 -16329.867 129927.746 -16979.697 130985.573 -17761.195 131944.778 -18655.654 132785.544 -19644.366 133488.058 -20708.621 133555.217 -20828.003 133708.701 -21104.396 133827.433 -21316.179 133890.431 -21425.986 133894.924 -21433.011 133980.669 -21455.828 134195.583 -21497.547 134501.522 -21551.007 134680.177 -21580.462 135616.586 -21773.214 136413.124 -22024.617 137065.252 -22331.949 137568.428 -22692.486 137918.113 -23103.507 138109.766 -23562.29 138126.665 -23646.96 138123.821 -24129.063 137961.397 -24627.463 137647.174 -25132.695 137188.931 -25635.295 136594.452 -26125.797 135871.516 -26594.736 135561.677 -26766.942 134907.789 -27115.348 134765.254 -27945.504 134456.868 -29253.92 133996.829 -30499.389 133394.588 -31670.638 132659.594 -32756.395 131801.297 -33745.387 130829.147 -34626.343 129752.593 -35387.991 128581.087 -36019.058 127691.191 -36383.702 126821.757 -36641.561 125855.235 -36834.738 124848.443 -36956.8 123858.199 -37001.313 122941.321 -36961.845 122760.74 -36941.954 121554.378 -36717.311 120344.665 -36349.311 119180.915 -35855.535 118224.046 -35324.695 117803.291 -35042.101 117363.325 -34714.714 116931.449 -34366.217 116534.963 -34020.296 116201.168 -33700.636 115957.365 -33430.922 115840.347 -33256.684 115756.209 -33050.857 115753.675 -32893.781 115833.373 -32691.371 115844.273 -32668.403 116048.461 -32389.945 116314.061 -32260.468 116621.144 -32289.223 116643.574 -32297.361 116802.006 -32392.795 117041.36 -32578.62 117323.983 -32824.342 117511.407 -33000.144 118449.343 -33791.083 119489.588 -34453.59 120612.416 -34976.628 121636.591 -35308.451 122328.188 -35448.383 123119.074 -35541.247 123944.919 -35583.595 124741.394 -35571.98 125397.328 -35510.025 126605.405 -35249.461 127761.452 -34834.131 128851.411 -34274.29 129861.225 -33580.194 130776.837 -32762.096 131584.19 -31830.253 132269.227 -30794.918 132529.308 -30307.138 132678.285 -29981.344 132833.987 -29598.153 132985.544 -29190.224 133122.085 -28790.218 133232.741 -28430.796 133306.642 -28144.616 133332.918 -27964.34 133323.082 -27922.113 133229.181 -27929 133035.203 -27991.242 132911.557 -28040.793 132649.657 -28144.417 132295.435 -28274.303 131917.902 -28405.278 131851.687 -28427.395 131163.634 -28655.608 131110.076 -29059.348 131032.086 -29367.385 130889.723 -29718.078 130782.129 -29920.242 130386.151 -30430.214 129904.489 -30809.43 129362.102 -31055.323 128783.944 -31165.326 128194.973 -31136.872 127620.145 -30967.396 127084.416 -30654.33 126734.96 -30336.461 126345.933 -29915.51 124682.206 -30211.008 123436.985 -30421.225 122304.037 -30587.021 121233.661 -30713.356 120176.155 -30805.191 119081.82 -30867.483 117900.955 -30905.193 117680.74 -30909.652 116953.876 -30921.832 116365.138 -30927.386 115883.406 -30925.138 115477.561 -30913.914 115116.484 -30892.538 114769.054 -30859.835 114404.153 -30814.63 114124.74 -30775.365 113089.933 -30598.813 112214.819 -30390.499 111492.117 -30146.826 110914.545 -29864.197 110474.823 -29539.016 110165.669 -29167.687 109979.801 -28746.614 109973.858 -28725.099 109931.626 -28262.749 110029.386 -27776.716 110251.462 -27309.963 110582.181 -26905.451 110664.599 -26831.902 110961.076 -26653.776 111243.234 -26640.693 111530.509 -26791.761 111530.989 -26792.139 111717.265 -27031.162 111747.199 -27327.007 111621.055 -27672.085 111493.634 -27868.778 111349.311 -28098.7 111268.235 -28294.927 111261.386 -28369.313 111371.885 -28543.033 111620.77 -28727.465 111978.82 -28909.216 112416.814 -29074.893 112905.528 -29211.104 113246.622 -29279.182 113596.171 -29337.402 113442.086 -28690.664 113207.09 -27373.653 113135.106 -26065.797 113138.408 -26017.699 114554.792 -26017.699 114566.776 -26816.504 114634.269 -27533.904 114667.747 -27735.468 114805.318 -28390.115 114941.859 -28881.147 115079.38 -29214.255 115219.888 -29395.132 115262.181 -29420.235 115403.995 -29443.272 115688.609 -29458.273 116089.707 -29465.739 116580.972 -29466.169 117136.085 -29460.065 117728.729 -29447.927 118332.588 -29430.257 118921.344 -29407.554 119468.68 -29380.32 119948.278 -29349.055 120220.74 -29325.897 120897.021 -29253.383 121682.195 -29157.157 122524.197 -29044.53 123370.959 -28922.813 124170.416 -28799.316 124870.501 -28681.351 125071.121 -28644.831 125935.095 -28483.818 127523.62 -28483.818 127544.531 -28869.901 127619.986 -29083.218 127853.744 -29396.193 128179.264 -29595.293 128555.078 -29671.159 128939.718 -29614.434 129248.268 -29450.703 129518.227 -29155.721 129648.675 -28815.952 129651.25 -28462.956 129537.588 -28128.29 129319.328 -27843.512 129008.104 -27640.18 128615.555 -27549.851 128546.643 -27547.994 128165.54 -27623.321 127854.451 -27826.851 127633.702 -28124.909 127523.62 -28483.818 125935.095 -28483.818 126045.938 -28463.161 126098.745 -28111.018 126208.799 -27728.637 126409.935 -27316.624 126664.082 -26940.908 126931.656 -26668.573 127432.234 -26353.251 127950.763 -26173.902 128545.505 -26111.123 128607.283 -26110.52 129245.021 -26174.802 129793.061 -26377.016 130270.343 -26725.199 130422.278 -26880.928 130728.765 -27220.173 131549.586 -26947.909 132089.106 -26757.911 132691.374 -26527.418 133318.661 -26272.546 133933.234 -26009.413 134497.364 -25754.136 134973.32 -25522.83 135297.977 -25346.778 135665.304 -25109.485 136026.259 -24841.143 136348.91 -24569.259 136601.32 -24321.338 136751.557 -24124.886 136773.265 -24076.057 136780.482 -23862.224 136649.63 -23666.642 136368.632 -23475.5 136158.572 -23373.007 135895.464 -23268.495 135572.799 -23159.642 135231.377 -23057.649 134912 -22973.715 134655.467 -22919.041 134502.581 -22904.828 134480.225 -22912.287 134485.892 -23002.629 134532.186 -23202.332 134577.026 -23360.479 134658.414 -23781.942 134613.05 -24106.635 134436.855 -24354.512 134361.697 -24414.171 134067.925 -24566.933 133811.451 -24573.558 133585.502 -24428.763 133383.307 -24127.269 133198.092 -23663.793 133134.556 -23457.267 132710.379 -22291.673 132140.332 -21200.722 131435.782 -20196.213 130608.1 -19289.943 129668.652 -18493.711 128628.808 -17819.314 127499.937 -17278.55 127003.396 -17094.591 125900.583 -16803.112 124739.323 -16649.741 123555.305 -16633.985 122384.213 -16755.348 121261.735 -17013.337 120762.6 -17181.092 119623.437 -17695.02 118568.336 -18347.869 117609.173 -19126.55 116757.825 -20017.978 116026.168 -21009.064 115426.076 -22086.721 114969.427 -23237.863 114828.38 -23720.568 114687.945 -24410.959 114595.965 -25196.26 114554.792 -26017.699 113138.408 -26017.699 113225.794 -24745.075 113368.107 -23887.543 113711.295 -22608.319 114205.801 -21392.592 114841.858 -20251.643 115609.703 -19196.758 116499.571 -18239.218 117501.695 -17390.306 118606.311 -16661.307 119803.654 -16063.503 120315.292 -15860.349 121241.526 -15566.137 122174.121 -15371.239 123165.863 -15266.773 123988.407 -15242.404 125130.546 -15284.186" fill="none" stroke-width="10"/></g><g id="sB6OorTWbbyhIPNyWCnF_top_drill1" transform="scale(25.4,25.4)"><use xlink:href="#gImpszW3IqV4utcRHxxa_pad-1" x="4761.2" y="-46.1"/><use xlink:href="#gImpszW3IqV4utcRHxxa_pad-1" x="4988.8" y="-46.1"/><use xlink:href="#gImpszW3IqV4utcRHxxa_pad-2" x="175" y="-375"/><use xlink:href="#gImpszW3IqV4utcRHxxa_pad-2" x="268.7" y="-1125"/><use xlink:href="#gImpszW3IqV4utcRHxxa_pad-2" x="268.7" y="-2625"/><use xlink:href="#gImpszW3IqV4utcRHxxa_pad-2" x="456.2" y="-1875"/><use xlink:href="#gImpszW3IqV4utcRHxxa_pad-2" x="575" y="-375"/><use xlink:href="#gImpszW3IqV4utcRHxxa_pad-2" x="668.7" y="-1125"/><use xlink:href="#gImpszW3IqV4utcRHxxa_pad-2" x="668.7" y="-2625"/><use xlink:href="#gImpszW3IqV4utcRHxxa_pad-2" x="856.2" y="-1875"/><use xlink:href="#gImpszW3IqV4utcRHxxa_pad-2" x="925" y="-375"/><use xlink:href="#gImpszW3IqV4utcRHxxa_pad-2" x="1112.5" y="-1125"/><use xlink:href="#gImpszW3IqV4utcRHxxa_pad-2" x="1112.5" y="-2625"/><use xlink:href="#gImpszW3IqV4utcRHxxa_pad-2" x="1325" y="-375"/><use xlink:href="#gImpszW3IqV4utcRHxxa_pad-2" x="1487.5" y="-1875"/><use xlink:href="#gImpszW3IqV4utcRHxxa_pad-2" x="1512.5" y="-1125"/><use xlink:href="#gImpszW3IqV4utcRHxxa_pad-2" x="1512.5" y="-2625"/><use xlink:href="#gImpszW3IqV4utcRHxxa_pad-2" x="1675" y="-375"/><use xlink:href="#gImpszW3IqV4utcRHxxa_pad-2" x="1862.5" y="-1125"/><use xlink:href="#gImpszW3IqV4utcRHxxa_pad-2" x="1887.5" y="-1875"/><use xlink:href="#gImpszW3IqV4utcRHxxa_pad-2" x="1956.3" y="-2625"/><use xlink:href="#gImpszW3IqV4utcRHxxa_pad-2" x="2075" y="-375"/><use xlink:href="#gImpszW3IqV4utcRHxxa_pad-2" x="2237.5" y="-1875"/><use xlink:href="#gImpszW3IqV4utcRHxxa_pad-2" x="2262.5" y="-1125"/><use xlink:href="#gImpszW3IqV4utcRHxxa_pad-2" x="2356.2" y="-2625"/><use xlink:href="#gImpszW3IqV4utcRHxxa_pad-2" x="2425" y="-375"/><use xlink:href="#gImpszW3IqV4utcRHxxa_pad-2" x="2612.5" y="-1125"/><use xlink:href="#gImpszW3IqV4utcRHxxa_pad-2" x="2637.5" y="-1875"/><use xlink:href="#gImpszW3IqV4utcRHxxa_pad-2" x="2825" y="-375"/><use xlink:href="#gImpszW3IqV4utcRHxxa_pad-2" x="2987.5" y="-1875"/><use xlink:href="#gImpszW3IqV4utcRHxxa_pad-2" x="3012.5" y="-1125"/><use xlink:href="#gImpszW3IqV4utcRHxxa_pad-2" x="3175" y="-375"/><use xlink:href="#gImpszW3IqV4utcRHxxa_pad-2" x="3362.5" y="-1125"/><use xlink:href="#gImpszW3IqV4utcRHxxa_pad-2" x="3387.5" y="-1875"/><use xlink:href="#gImpszW3IqV4utcRHxxa_pad-2" x="3456.2" y="-2625"/><use xlink:href="#gImpszW3IqV4utcRHxxa_pad-2" x="3550" y="-2625"/><use xlink:href="#gImpszW3IqV4utcRHxxa_pad-2" x="3575" y="-375"/><use xlink:href="#gImpszW3IqV4utcRHxxa_pad-2" x="3737.5" y="-1875"/><use xlink:href="#gImpszW3IqV4utcRHxxa_pad-2" x="3762.5" y="-1125"/><use xlink:href="#gImpszW3IqV4utcRHxxa_pad-2" x="3856.2" y="-2625"/><use xlink:href="#gImpszW3IqV4utcRHxxa_pad-2" x="3925" y="-375"/><use xlink:href="#gImpszW3IqV4utcRHxxa_pad-2" x="3950" y="-2625"/><use xlink:href="#gImpszW3IqV4utcRHxxa_pad-2" x="4112.5" y="-1125"/><use xlink:href="#gImpszW3IqV4utcRHxxa_pad-2" x="4137.5" y="-1875"/><use xlink:href="#gImpszW3IqV4utcRHxxa_pad-2" x="4325" y="-375"/><use xlink:href="#gImpszW3IqV4utcRHxxa_pad-2" x="4487.5" y="-1875"/><use xlink:href="#gImpszW3IqV4utcRHxxa_pad-2" x="4512.5" y="-1125"/><use xlink:href="#gImpszW3IqV4utcRHxxa_pad-2" x="4675" y="-375"/><use xlink:href="#gImpszW3IqV4utcRHxxa_pad-2" x="4675" y="-2625"/><use xlink:href="#gImpszW3IqV4utcRHxxa_pad-2" x="4862.5" y="-1125"/><use xlink:href="#gImpszW3IqV4utcRHxxa_pad-2" x="4887.5" y="-1875"/><use xlink:href="#gImpszW3IqV4utcRHxxa_pad-2" x="5075" y="-375"/><use xlink:href="#gImpszW3IqV4utcRHxxa_pad-2" x="5075" y="-2625"/><use xlink:href="#gImpszW3IqV4utcRHxxa_pad-2" x="5237.5" y="-1875"/><use xlink:href="#gImpszW3IqV4utcRHxxa_pad-2" x="5262.5" y="-1125"/><use xlink:href="#gImpszW3IqV4utcRHxxa_pad-2" x="5331.2" y="-2625"/><use xlink:href="#gImpszW3IqV4utcRHxxa_pad-2" x="5425" y="-375"/><use xlink:href="#gImpszW3IqV4utcRHxxa_pad-2" x="5612.5" y="-1125"/><use xlink:href="#gImpszW3IqV4utcRHxxa_pad-2" x="5637.5" y="-1875"/><use xlink:href="#gImpszW3IqV4utcRHxxa_pad-2" x="5731.3" y="-2625"/><use xlink:href="#gImpszW3IqV4utcRHxxa_pad-2" x="5800" y="-2625"/><use xlink:href="#gImpszW3IqV4utcRHxxa_pad-2" x="5825" y="-375"/><use xlink:href="#gImpszW3IqV4utcRHxxa_pad-2" x="5987.5" y="-1875"/><use xlink:href="#gImpszW3IqV4utcRHxxa_pad-2" x="6012.5" y="-1125"/><use xlink:href="#gImpszW3IqV4utcRHxxa_pad-2" x="6175" y="-375"/><use xlink:href="#gImpszW3IqV4utcRHxxa_pad-2" x="6200" y="-2625"/><use xlink:href="#gImpszW3IqV4utcRHxxa_pad-2" x="6362.5" y="-1125"/><use xlink:href="#gImpszW3IqV4utcRHxxa_pad-2" x="6387.5" y="-1875"/><use xlink:href="#gImpszW3IqV4utcRHxxa_pad-2" x="6550" y="-2625"/><use xlink:href="#gImpszW3IqV4utcRHxxa_pad-2" x="6575" y="-375"/><use xlink:href="#gImpszW3IqV4utcRHxxa_pad-2" x="6737.5" y="-1875"/><use xlink:href="#gImpszW3IqV4utcRHxxa_pad-2" x="6762.5" y="-1125"/><use xlink:href="#gImpszW3IqV4utcRHxxa_pad-2" x="6925" y="-375"/><use xlink:href="#gImpszW3IqV4utcRHxxa_pad-2" x="6950" y="-2625"/><use xlink:href="#gImpszW3IqV4utcRHxxa_pad-2" x="7112.5" y="-1125"/><use xlink:href="#gImpszW3IqV4utcRHxxa_pad-2" x="7137.5" y="-1875"/><use xlink:href="#gImpszW3IqV4utcRHxxa_pad-2" x="7325" y="-375"/><use xlink:href="#gImpszW3IqV4utcRHxxa_pad-2" x="7393.7" y="-2625"/><use xlink:href="#gImpszW3IqV4utcRHxxa_pad-2" x="7487.5" y="-1875"/><use xlink:href="#gImpszW3IqV4utcRHxxa_pad-2" x="7512.5" y="-1125"/><use xlink:href="#gImpszW3IqV4utcRHxxa_pad-2" x="7675" y="-375"/><use xlink:href="#gImpszW3IqV4utcRHxxa_pad-2" x="7793.8" y="-2625"/><use xlink:href="#gImpszW3IqV4utcRHxxa_pad-2" x="7862.5" y="-1125"/><use xlink:href="#gImpszW3IqV4utcRHxxa_pad-2" x="7887.5" y="-1875"/><use xlink:href="#gImpszW3IqV4utcRHxxa_pad-2" x="8075" y="-375"/><use xlink:href="#gImpszW3IqV4utcRHxxa_pad-2" x="8237.5" y="-1875"/><use xlink:href="#gImpszW3IqV4utcRHxxa_pad-2" x="8237.5" y="-2625"/><use xlink:href="#gImpszW3IqV4utcRHxxa_pad-2" x="8262.5" y="-1125"/><use xlink:href="#gImpszW3IqV4utcRHxxa_pad-2" x="8425" y="-375"/><use xlink:href="#gImpszW3IqV4utcRHxxa_pad-2" x="8637.5" y="-1875"/><use xlink:href="#gImpszW3IqV4utcRHxxa_pad-2" x="8637.5" y="-2625"/><use xlink:href="#gImpszW3IqV4utcRHxxa_pad-2" x="8800" y="-375"/><use xlink:href="#gImpszW3IqV4utcRHxxa_pad-2" x="8825" y="-375"/><use xlink:href="#gImpszW3IqV4utcRHxxa_pad-2" x="8893.7" y="-1125"/><use xlink:href="#gImpszW3IqV4utcRHxxa_pad-2" x="9081.2" y="-1875"/><use xlink:href="#gImpszW3IqV4utcRHxxa_pad-2" x="9081.2" y="-2625"/><use xlink:href="#gImpszW3IqV4utcRHxxa_pad-2" x="9175" y="-375"/><use xlink:href="#gImpszW3IqV4utcRHxxa_pad-2" x="9200" y="-375"/><use xlink:href="#gImpszW3IqV4utcRHxxa_pad-2" x="9293.7" y="-1125"/><use xlink:href="#gImpszW3IqV4utcRHxxa_pad-2" x="9481.2" y="-1875"/><use xlink:href="#gImpszW3IqV4utcRHxxa_pad-2" x="9481.2" y="-2625"/><use xlink:href="#gImpszW3IqV4utcRHxxa_pad-2" x="9575" y="-375"/><use xlink:href="#gImpszW3IqV4utcRHxxa_pad-3" x="3000" y="-2900"/><use xlink:href="#gImpszW3IqV4utcRHxxa_pad-3" x="3000" y="-2900"/><use xlink:href="#gImpszW3IqV4utcRHxxa_pad-3" x="3187.5" y="-2900"/><use xlink:href="#gImpszW3IqV4utcRHxxa_pad-3" x="4125" y="-2900"/><use xlink:href="#gImpszW3IqV4utcRHxxa_pad-3" x="4500" y="-2900"/><use xlink:href="#gImpszW3IqV4utcRHxxa_pad-3" x="5062.5" y="-2900"/><use xlink:href="#gImpszW3IqV4utcRHxxa_pad-3" x="5250" y="-2900"/><use xlink:href="#gImpszW3IqV4utcRHxxa_pad-3" x="6000" y="-2900"/><use xlink:href="#gImpszW3IqV4utcRHxxa_pad-3" x="6750" y="-2900"/><use xlink:href="#gImpszW3IqV4utcRHxxa_pad-3" x="6750" y="-2900"/><use xlink:href="#gImpszW3IqV4utcRHxxa_pad-3" x="8531.2" y="-100"/><use xlink:href="#gImpszW3IqV4utcRHxxa_pad-3" x="9468.8" y="-100"/><use xlink:href="#gImpszW3IqV4utcRHxxa_pad-4" x="375" y="-375"/><use xlink:href="#gImpszW3IqV4utcRHxxa_pad-4" x="468.8" y="-1125"/><use xlink:href="#gImpszW3IqV4utcRHxxa_pad-4" x="468.8" y="-2625"/><use xlink:href="#gImpszW3IqV4utcRHxxa_pad-4" x="656.2" y="-1875"/><use xlink:href="#gImpszW3IqV4utcRHxxa_pad-4" x="1125" y="-375"/><use xlink:href="#gImpszW3IqV4utcRHxxa_pad-4" x="1312.5" y="-1125"/><use xlink:href="#gImpszW3IqV4utcRHxxa_pad-4" x="1312.5" y="-2625"/><use xlink:href="#gImpszW3IqV4utcRHxxa_pad-4" x="1687.5" y="-1875"/><use xlink:href="#gImpszW3IqV4utcRHxxa_pad-4" x="1875" y="-375"/><use xlink:href="#gImpszW3IqV4utcRHxxa_pad-4" x="2062.5" y="-1125"/><use xlink:href="#gImpszW3IqV4utcRHxxa_pad-4" x="2156.2" y="-2625"/><use xlink:href="#gImpszW3IqV4utcRHxxa_pad-4" x="2437.5" y="-1875"/><use xlink:href="#gImpszW3IqV4utcRHxxa_pad-4" x="2625" y="-375"/><use xlink:href="#gImpszW3IqV4utcRHxxa_pad-4" x="2812.5" y="-1125"/><use xlink:href="#gImpszW3IqV4utcRHxxa_pad-4" x="3000" y="-2300"/><use xlink:href="#gImpszW3IqV4utcRHxxa_pad-4" x="3000" y="-2300"/><use xlink:href="#gImpszW3IqV4utcRHxxa_pad-4" x="3187.5" y="-1875"/><use xlink:href="#gImpszW3IqV4utcRHxxa_pad-4" x="3187.5" y="-2300"/><use xlink:href="#gImpszW3IqV4utcRHxxa_pad-4" x="3375" y="-375"/><use xlink:href="#gImpszW3IqV4utcRHxxa_pad-4" x="3562.5" y="-1125"/><use xlink:href="#gImpszW3IqV4utcRHxxa_pad-4" x="3656.2" y="-2625"/><use xlink:href="#gImpszW3IqV4utcRHxxa_pad-4" x="3750" y="-2625"/><use xlink:href="#gImpszW3IqV4utcRHxxa_pad-4" x="3937.5" y="-1875"/><use xlink:href="#gImpszW3IqV4utcRHxxa_pad-4" x="4125" y="-375"/><use xlink:href="#gImpszW3IqV4utcRHxxa_pad-4" x="4125" y="-2300"/><use xlink:href="#gImpszW3IqV4utcRHxxa_pad-4" x="4312.5" y="-1125"/><use xlink:href="#gImpszW3IqV4utcRHxxa_pad-4" x="4500" y="-2300"/><use xlink:href="#gImpszW3IqV4utcRHxxa_pad-4" x="4687.5" y="-1875"/><use xlink:href="#gImpszW3IqV4utcRHxxa_pad-4" x="4875" y="-375"/><use xlink:href="#gImpszW3IqV4utcRHxxa_pad-4" x="4875" y="-2625"/><use xlink:href="#gImpszW3IqV4utcRHxxa_pad-4" x="5062.5" y="-1125"/><use xlink:href="#gImpszW3IqV4utcRHxxa_pad-4" x="5062.5" y="-2300"/><use xlink:href="#gImpszW3IqV4utcRHxxa_pad-4" x="5250" y="-2300"/><use xlink:href="#gImpszW3IqV4utcRHxxa_pad-4" x="5437.5" y="-1875"/><use xlink:href="#gImpszW3IqV4utcRHxxa_pad-4" x="5531.2" y="-2625"/><use xlink:href="#gImpszW3IqV4utcRHxxa_pad-4" x="5625" y="-375"/><use xlink:href="#gImpszW3IqV4utcRHxxa_pad-4" x="5812.5" y="-1125"/><use xlink:href="#gImpszW3IqV4utcRHxxa_pad-4" x="6000" y="-2300"/><use xlink:href="#gImpszW3IqV4utcRHxxa_pad-4" x="6000" y="-2625"/><use xlink:href="#gImpszW3IqV4utcRHxxa_pad-4" x="6187.5" y="-1875"/><use xlink:href="#gImpszW3IqV4utcRHxxa_pad-4" x="6375" y="-375"/><use xlink:href="#gImpszW3IqV4utcRHxxa_pad-4" x="6562.5" y="-1125"/><use xlink:href="#gImpszW3IqV4utcRHxxa_pad-4" x="6750" y="-2300"/><use xlink:href="#gImpszW3IqV4utcRHxxa_pad-4" x="6750" y="-2300"/><use xlink:href="#gImpszW3IqV4utcRHxxa_pad-4" x="6750" y="-2625"/><use xlink:href="#gImpszW3IqV4utcRHxxa_pad-4" x="6937.5" y="-1875"/><use xlink:href="#gImpszW3IqV4utcRHxxa_pad-4" x="7125" y="-375"/><use xlink:href="#gImpszW3IqV4utcRHxxa_pad-4" x="7312.5" y="-1125"/><use xlink:href="#gImpszW3IqV4utcRHxxa_pad-4" x="7593.8" y="-2625"/><use xlink:href="#gImpszW3IqV4utcRHxxa_pad-4" x="7687.5" y="-1875"/><use xlink:href="#gImpszW3IqV4utcRHxxa_pad-4" x="7875" y="-375"/><use xlink:href="#gImpszW3IqV4utcRHxxa_pad-4" x="8062.5" y="-1125"/><use xlink:href="#gImpszW3IqV4utcRHxxa_pad-4" x="8437.5" y="-1875"/><use xlink:href="#gImpszW3IqV4utcRHxxa_pad-4" x="8437.5" y="-2625"/><use xlink:href="#gImpszW3IqV4utcRHxxa_pad-4" x="8531.2" y="-700"/><use xlink:href="#gImpszW3IqV4utcRHxxa_pad-4" x="8625" y="-375"/><use xlink:href="#gImpszW3IqV4utcRHxxa_pad-4" x="9000" y="-375"/><use xlink:href="#gImpszW3IqV4utcRHxxa_pad-4" x="9093.8" y="-1125"/><use xlink:href="#gImpszW3IqV4utcRHxxa_pad-4" x="9281.2" y="-1875"/><use xlink:href="#gImpszW3IqV4utcRHxxa_pad-4" x="9281.2" y="-2625"/><use xlink:href="#gImpszW3IqV4utcRHxxa_pad-4" x="9375" y="-375"/><use xlink:href="#gImpszW3IqV4utcRHxxa_pad-4" x="9468.8" y="-700"/></g><g id="sB6OorTWbbyhIPNyWCnF_top_drill2" transform="scale(25.4,25.4)"><use xlink:href="#moJ6HGInz-yP_92gJXoS_pad-1" x="345" y="-1430"/><use xlink:href="#moJ6HGInz-yP_92gJXoS_pad-1" x="1162.5" y="-1401.8"/><use xlink:href="#moJ6HGInz-yP_92gJXoS_pad-1" x="1925" y="-1386"/><use xlink:href="#moJ6HGInz-yP_92gJXoS_pad-1" x="2690" y="-1370.3"/><use xlink:href="#moJ6HGInz-yP_92gJXoS_pad-1" x="3440" y="-1354.5"/><use xlink:href="#moJ6HGInz-yP_92gJXoS_pad-1" x="4190" y="-1338.8"/><use xlink:href="#moJ6HGInz-yP_92gJXoS_pad-1" x="4530.4" y="-469.6"/><use xlink:href="#moJ6HGInz-yP_92gJXoS_pad-1" x="4537.5" y="-1323"/><use xlink:href="#moJ6HGInz-yP_92gJXoS_pad-1" x="4691.5" y="-1220"/><use xlink:href="#moJ6HGInz-yP_92gJXoS_pad-1" x="4710" y="-1420"/><use xlink:href="#moJ6HGInz-yP_92gJXoS_pad-1" x="4725" y="-155.1"/><use xlink:href="#moJ6HGInz-yP_92gJXoS_pad-1" x="4775" y="-1330"/><use xlink:href="#moJ6HGInz-yP_92gJXoS_pad-1" x="4792.2" y="-1431.9"/><use xlink:href="#moJ6HGInz-yP_92gJXoS_pad-1" x="4810" y="-155.1"/><use xlink:href="#moJ6HGInz-yP_92gJXoS_pad-1" x="4825.4" y="-1500.2"/><use xlink:href="#moJ6HGInz-yP_92gJXoS_pad-1" x="4835" y="-1270"/><use xlink:href="#moJ6HGInz-yP_92gJXoS_pad-1" x="4841.4" y="-1464.2"/><use xlink:href="#moJ6HGInz-yP_92gJXoS_pad-1" x="4935" y="-1235"/><use xlink:href="#moJ6HGInz-yP_92gJXoS_pad-1" x="4939.8" y="-154.8"/><use xlink:href="#moJ6HGInz-yP_92gJXoS_pad-1" x="4994" y="-903.1"/><use xlink:href="#moJ6HGInz-yP_92gJXoS_pad-1" x="4996.5" y="-603.5"/><use xlink:href="#moJ6HGInz-yP_92gJXoS_pad-1" x="5000" y="-1755"/><use xlink:href="#moJ6HGInz-yP_92gJXoS_pad-1" x="5018.1" y="-157.2"/><use xlink:href="#moJ6HGInz-yP_92gJXoS_pad-1" x="5095" y="-1810"/><use xlink:href="#moJ6HGInz-yP_92gJXoS_pad-1" x="5095" y="-1940"/><use xlink:href="#moJ6HGInz-yP_92gJXoS_pad-1" x="5134.6" y="-469.6"/><use xlink:href="#moJ6HGInz-yP_92gJXoS_pad-1" x="5150.5" y="-2719.5"/><use xlink:href="#moJ6HGInz-yP_92gJXoS_pad-1" x="5162.4" y="-1038.4"/><use xlink:href="#moJ6HGInz-yP_92gJXoS_pad-1" x="5182.7" y="-1072.5"/><use xlink:href="#moJ6HGInz-yP_92gJXoS_pad-1" x="5209.4" y="-1101.5"/><use xlink:href="#moJ6HGInz-yP_92gJXoS_pad-1" x="5210" y="-405"/><use xlink:href="#moJ6HGInz-yP_92gJXoS_pad-1" x="5210" y="-1195"/><use xlink:href="#moJ6HGInz-yP_92gJXoS_pad-1" x="5240.2" y="-1680.2"/><use xlink:href="#moJ6HGInz-yP_92gJXoS_pad-1" x="5270.4" y="-469.6"/><use xlink:href="#moJ6HGInz-yP_92gJXoS_pad-1" x="5330.5" y="-1219.5"/><use xlink:href="#moJ6HGInz-yP_92gJXoS_pad-1" x="5380.2" y="-1269.8"/><use xlink:href="#moJ6HGInz-yP_92gJXoS_pad-1" x="5385" y="-1495"/><use xlink:href="#moJ6HGInz-yP_92gJXoS_pad-1" x="5407.7" y="-1160"/><use xlink:href="#moJ6HGInz-yP_92gJXoS_pad-1" x="5425" y="-1410"/><use xlink:href="#moJ6HGInz-yP_92gJXoS_pad-1" x="5690" y="-1323"/><use xlink:href="#moJ6HGInz-yP_92gJXoS_pad-1" x="6440" y="-1338.8"/><use xlink:href="#moJ6HGInz-yP_92gJXoS_pad-1" x="7190" y="-1354.5"/><use xlink:href="#moJ6HGInz-yP_92gJXoS_pad-1" x="7940" y="-1370.3"/><use xlink:href="#moJ6HGInz-yP_92gJXoS_pad-1" x="8375" y="-1386"/><use xlink:href="#moJ6HGInz-yP_92gJXoS_pad-1" x="8970" y="-1401.8"/><use xlink:href="#moJ6HGInz-yP_92gJXoS_pad-1" x="9713.6" y="-567"/><use xlink:href="#moJ6HGInz-yP_92gJXoS_pad-3" x="5145" y="-685"/><use xlink:href="#moJ6HGInz-yP_92gJXoS_pad-3" x="5150" y="-585"/><use xlink:href="#moJ6HGInz-yP_92gJXoS_pad-3" x="5150" y="-785"/><use xlink:href="#moJ6HGInz-yP_92gJXoS_pad-3" x="5245" y="-685"/><use xlink:href="#moJ6HGInz-yP_92gJXoS_pad-3" x="5250" y="-585"/><use xlink:href="#moJ6HGInz-yP_92gJXoS_pad-3" x="5250" y="-785"/><use xlink:href="#moJ6HGInz-yP_92gJXoS_pad-4" x="9099.4" y="-276.6"/><use xlink:href="#moJ6HGInz-yP_92gJXoS_pad-4" x="9099.4" y="-473.4"/><use xlink:href="#moJ6HGInz-yP_92gJXoS_pad-4" x="9670.3" y="-276.6"/><use xlink:href="#moJ6HGInz-yP_92gJXoS_pad-4" x="9670.3" y="-375"/><use xlink:href="#moJ6HGInz-yP_92gJXoS_pad-4" x="9670.3" y="-473.4"/><use xlink:href="#moJ6HGInz-yP_92gJXoS_pad-5" x="225" y="-275"/><use xlink:href="#moJ6HGInz-yP_92gJXoS_pad-5" x="318.7" y="-1025"/><use xlink:href="#moJ6HGInz-yP_92gJXoS_pad-5" x="318.7" y="-2525"/><use xlink:href="#moJ6HGInz-yP_92gJXoS_pad-5" x="475" y="-175"/><use xlink:href="#moJ6HGInz-yP_92gJXoS_pad-5" x="506.2" y="-1775"/><use xlink:href="#moJ6HGInz-yP_92gJXoS_pad-5" x="568.7" y="-925"/><use xlink:href="#moJ6HGInz-yP_92gJXoS_pad-5" x="568.7" y="-2425"/><use xlink:href="#moJ6HGInz-yP_92gJXoS_pad-5" x="756.2" y="-1675"/><use xlink:href="#moJ6HGInz-yP_92gJXoS_pad-5" x="975" y="-275"/><use xlink:href="#moJ6HGInz-yP_92gJXoS_pad-5" x="1162.5" y="-1025"/><use xlink:href="#moJ6HGInz-yP_92gJXoS_pad-5" x="1162.5" y="-2525"/><use xlink:href="#moJ6HGInz-yP_92gJXoS_pad-5" x="1225" y="-175"/><use xlink:href="#moJ6HGInz-yP_92gJXoS_pad-5" x="1412.5" y="-925"/><use xlink:href="#moJ6HGInz-yP_92gJXoS_pad-5" x="1412.5" y="-2425"/><use xlink:href="#moJ6HGInz-yP_92gJXoS_pad-5" x="1537.5" y="-1775"/><use xlink:href="#moJ6HGInz-yP_92gJXoS_pad-5" x="1725" y="-275"/><use xlink:href="#moJ6HGInz-yP_92gJXoS_pad-5" x="1787.5" y="-1675"/><use xlink:href="#moJ6HGInz-yP_92gJXoS_pad-5" x="1912.5" y="-1025"/><use xlink:href="#moJ6HGInz-yP_92gJXoS_pad-5" x="1975" y="-175"/><use xlink:href="#moJ6HGInz-yP_92gJXoS_pad-5" x="2006.3" y="-2525"/><use xlink:href="#moJ6HGInz-yP_92gJXoS_pad-5" x="2162.5" y="-925"/><use xlink:href="#moJ6HGInz-yP_92gJXoS_pad-5" x="2256.3" y="-2425"/><use xlink:href="#moJ6HGInz-yP_92gJXoS_pad-5" x="2287.5" y="-1775"/><use xlink:href="#moJ6HGInz-yP_92gJXoS_pad-5" x="2475" y="-275"/><use xlink:href="#moJ6HGInz-yP_92gJXoS_pad-5" x="2537.5" y="-1675"/><use xlink:href="#moJ6HGInz-yP_92gJXoS_pad-5" x="2662.5" y="-1025"/><use xlink:href="#moJ6HGInz-yP_92gJXoS_pad-5" x="2725" y="-175"/><use xlink:href="#moJ6HGInz-yP_92gJXoS_pad-5" x="2912.5" y="-925"/><use xlink:href="#moJ6HGInz-yP_92gJXoS_pad-5" x="3037.5" y="-1775"/><use xlink:href="#moJ6HGInz-yP_92gJXoS_pad-5" x="3225" y="-275"/><use xlink:href="#moJ6HGInz-yP_92gJXoS_pad-5" x="3287.5" y="-1675"/><use xlink:href="#moJ6HGInz-yP_92gJXoS_pad-5" x="3412.5" y="-1025"/><use xlink:href="#moJ6HGInz-yP_92gJXoS_pad-5" x="3475" y="-175"/><use xlink:href="#moJ6HGInz-yP_92gJXoS_pad-5" x="3506.3" y="-2525"/><use xlink:href="#moJ6HGInz-yP_92gJXoS_pad-5" x="3600" y="-2525"/><use xlink:href="#moJ6HGInz-yP_92gJXoS_pad-5" x="3662.5" y="-925"/><use xlink:href="#moJ6HGInz-yP_92gJXoS_pad-5" x="3756.3" y="-2425"/><use xlink:href="#moJ6HGInz-yP_92gJXoS_pad-5" x="3787.5" y="-1775"/><use xlink:href="#moJ6HGInz-yP_92gJXoS_pad-5" x="3850" y="-2425"/><use xlink:href="#moJ6HGInz-yP_92gJXoS_pad-5" x="3975" y="-275"/><use xlink:href="#moJ6HGInz-yP_92gJXoS_pad-5" x="4037.5" y="-1675"/><use xlink:href="#moJ6HGInz-yP_92gJXoS_pad-5" x="4162.5" y="-1025"/><use xlink:href="#moJ6HGInz-yP_92gJXoS_pad-5" x="4225" y="-175"/><use xlink:href="#moJ6HGInz-yP_92gJXoS_pad-5" x="4412.5" y="-925"/><use xlink:href="#moJ6HGInz-yP_92gJXoS_pad-5" x="4537.5" y="-1775"/><use xlink:href="#moJ6HGInz-yP_92gJXoS_pad-5" x="4725" y="-2525"/><use xlink:href="#moJ6HGInz-yP_92gJXoS_pad-5" x="4775" y="-575"/><use xlink:href="#moJ6HGInz-yP_92gJXoS_pad-5" x="4787.5" y="-1675"/><use xlink:href="#moJ6HGInz-yP_92gJXoS_pad-5" x="4912.5" y="-1025"/><use xlink:href="#moJ6HGInz-yP_92gJXoS_pad-5" x="4975" y="-2425"/><use xlink:href="#moJ6HGInz-yP_92gJXoS_pad-5" x="5025" y="-475"/><use xlink:href="#moJ6HGInz-yP_92gJXoS_pad-5" x="5162.5" y="-925"/><use xlink:href="#moJ6HGInz-yP_92gJXoS_pad-5" x="5287.5" y="-1775"/><use xlink:href="#moJ6HGInz-yP_92gJXoS_pad-5" x="5381.2" y="-2525"/><use xlink:href="#moJ6HGInz-yP_92gJXoS_pad-5" x="5475" y="-275"/><use xlink:href="#moJ6HGInz-yP_92gJXoS_pad-5" x="5537.5" y="-1675"/><use xlink:href="#moJ6HGInz-yP_92gJXoS_pad-5" x="5631.2" y="-2425"/><use xlink:href="#moJ6HGInz-yP_92gJXoS_pad-5" x="5662.5" y="-1025"/><use xlink:href="#moJ6HGInz-yP_92gJXoS_pad-5" x="5725" y="-175"/><use xlink:href="#moJ6HGInz-yP_92gJXoS_pad-5" x="5850" y="-2525"/><use xlink:href="#moJ6HGInz-yP_92gJXoS_pad-5" x="5912.5" y="-925"/><use xlink:href="#moJ6HGInz-yP_92gJXoS_pad-5" x="6037.5" y="-1775"/><use xlink:href="#moJ6HGInz-yP_92gJXoS_pad-5" x="6100" y="-2425"/><use xlink:href="#moJ6HGInz-yP_92gJXoS_pad-5" x="6225" y="-275"/><use xlink:href="#moJ6HGInz-yP_92gJXoS_pad-5" x="6287.5" y="-1675"/><use xlink:href="#moJ6HGInz-yP_92gJXoS_pad-5" x="6412.5" y="-1025"/><use xlink:href="#moJ6HGInz-yP_92gJXoS_pad-5" x="6475" y="-175"/><use xlink:href="#moJ6HGInz-yP_92gJXoS_pad-5" x="6600" y="-2525"/><use xlink:href="#moJ6HGInz-yP_92gJXoS_pad-5" x="6662.5" y="-925"/><use xlink:href="#moJ6HGInz-yP_92gJXoS_pad-5" x="6787.5" y="-1775"/><use xlink:href="#moJ6HGInz-yP_92gJXoS_pad-5" x="6850" y="-2425"/><use xlink:href="#moJ6HGInz-yP_92gJXoS_pad-5" x="6975" y="-275"/><use xlink:href="#moJ6HGInz-yP_92gJXoS_pad-5" x="7037.5" y="-1675"/><use xlink:href="#moJ6HGInz-yP_92gJXoS_pad-5" x="7162.5" y="-1025"/><use xlink:href="#moJ6HGInz-yP_92gJXoS_pad-5" x="7225" y="-175"/><use xlink:href="#moJ6HGInz-yP_92gJXoS_pad-5" x="7412.5" y="-925"/><use xlink:href="#moJ6HGInz-yP_92gJXoS_pad-5" x="7443.7" y="-2525"/><use xlink:href="#moJ6HGInz-yP_92gJXoS_pad-5" x="7537.5" y="-1775"/><use xlink:href="#moJ6HGInz-yP_92gJXoS_pad-5" x="7693.7" y="-2425"/><use xlink:href="#moJ6HGInz-yP_92gJXoS_pad-5" x="7725" y="-275"/><use xlink:href="#moJ6HGInz-yP_92gJXoS_pad-5" x="7787.5" y="-1675"/><use xlink:href="#moJ6HGInz-yP_92gJXoS_pad-5" x="7912.5" y="-1025"/><use xlink:href="#moJ6HGInz-yP_92gJXoS_pad-5" x="7975" y="-175"/><use xlink:href="#moJ6HGInz-yP_92gJXoS_pad-5" x="8162.5" y="-925"/><use xlink:href="#moJ6HGInz-yP_92gJXoS_pad-5" x="8287.5" y="-1775"/><use xlink:href="#moJ6HGInz-yP_92gJXoS_pad-5" x="8287.5" y="-2525"/><use xlink:href="#moJ6HGInz-yP_92gJXoS_pad-5" x="8475" y="-275"/><use xlink:href="#moJ6HGInz-yP_92gJXoS_pad-5" x="8537.5" y="-1675"/><use xlink:href="#moJ6HGInz-yP_92gJXoS_pad-5" x="8537.5" y="-2425"/><use xlink:href="#moJ6HGInz-yP_92gJXoS_pad-5" x="8725" y="-175"/><use xlink:href="#moJ6HGInz-yP_92gJXoS_pad-5" x="8850" y="-275"/><use xlink:href="#moJ6HGInz-yP_92gJXoS_pad-5" x="8943.7" y="-1025"/><use xlink:href="#moJ6HGInz-yP_92gJXoS_pad-5" x="9100" y="-175"/><use xlink:href="#moJ6HGInz-yP_92gJXoS_pad-5" x="9131.2" y="-1775"/><use xlink:href="#moJ6HGInz-yP_92gJXoS_pad-5" x="9131.2" y="-2525"/><use xlink:href="#moJ6HGInz-yP_92gJXoS_pad-5" x="9193.7" y="-925"/><use xlink:href="#moJ6HGInz-yP_92gJXoS_pad-5" x="9225" y="-275"/><use xlink:href="#moJ6HGInz-yP_92gJXoS_pad-5" x="9381.2" y="-1675"/><use xlink:href="#moJ6HGInz-yP_92gJXoS_pad-5" x="9381.2" y="-2425"/><use xlink:href="#moJ6HGInz-yP_92gJXoS_pad-5" x="9475" y="-175"/><path d="M 4704.9 109.4 4704.9 85.8 M 4704.9 -45.3 4704.9 -88.6 M 5045.1 109.4 5045.1 85.8 M 5045.1 -45.3 5045.1 -88.6" fill="none" stroke-width="23.6"/></g><clipPath id="sB6OorTWbbyhIPNyWCnF_top_outline"><path d="M 13900.15 -66675 A 1993.9 1993.9 0 0 1 9912.35 -66675 1993.9 1993.9 0 0 1 13900.15 -66675 M 165439.5 2994.028 165439.5 4994.028 A 1500 1500 0 0 1 163939.5 6494.028 L 159939.5 6494.028 A 1500 1500 0 0 1 158439.5 4994.028 L 158439.5 2994.028 A 1500 1500 0 0 0 156939.5 1494.028 L 129839.5 1494.028 A 1000 1000 0 0 0 128839.5 2494.028 L 128839.5 2994.028 A 1000 1000 0 0 1 127839.5 3994.028 L 119839.5 3994.028 A 1000 1000 0 0 1 118839.5 2994.028 L 118839.5 2494.028 A 1000 1000 0 0 0 117839.5 1494.028 L 90739.5 1494.028 A 1500 1500 0 0 0 89239.5 2994.028 L 89239.5 4994.028 A 1500 1500 0 0 1 87739.5 6494.028 L 83739.5 6494.028 A 1500 1500 0 0 1 82239.5 4994.028 L 82239.5 2994.028 A 1500 1500 0 0 0 80739.5 1494.028 L 74830.788 1494.028 A 1499.9998004 1499.9998004 0 0 1 74205.891 1357.664 3999.9993541 3999.9993541 0 0 0 70873.109 1357.665 1500.001 1500.001 0 0 1 70248.212 1494.029 L 33589.5 1494.028 A 1500 1500 0 0 0 32089.5 2994.028 L 32089.5 4994.028 A 1500 1500 0 0 1 30589.5 6494.028 L 26589.5 6494.028 A 1500 1500 0 0 1 25089.5 4994.028 L 25089.5 2994.028 A 1500 1500 0 0 0 23589.5 1494.028 L 7830.788 1494.028 A 1499.9998004 1499.9998004 0 0 1 7205.891 1357.664 3999.9993541 3999.9993541 0 0 0 3873.109 1357.665 1500.001 1500.001 0 0 1 3248.212 1494.029 L 539.5 1494.028 A 2000 2000 0 0 1 -1460.5 -505.973 L -1460.5 -75655.972 A 2000 2000 0 0 1 539.5 -77655.972 L 3248.212 -77655.972 A 1499.9998004 1499.9998004 0 0 1 3873.109 -77519.609 3999.9993541 3999.9993541 0 0 0 7205.891 -77519.609 1500 1500 0 0 1 7830.788 -77655.973 L 18827 -77655.972 A 1500 1500 0 0 0 20327 -79155.972 L 20327 -81155.971 A 1500 1500 0 0 1 21827 -82655.971 L 25827 -82655.972 A 1500 1500 0 0 1 27327 -81155.971 L 27327 -79155.972 A 1500 1500 0 0 0 28827 -77655.972 L 70248.212 -77655.972 A 1499.9998004 1499.9998004 0 0 1 70873.109 -77519.608 3999.9993541 3999.9993541 0 0 0 74205.891 -77519.608 1500 1500 0 0 1 74830.788 -77655.972 L 75977 -77655.972 A 1500 1500 0 0 0 77477 -79155.972 L 77477 -81155.972 A 1500 1500 0 0 1 78977 -82655.971 L 82977 -82655.972 A 1500 1500 0 0 1 84477 -81155.972 L 84477 -79155.973 A 1500 1500 0 0 0 85977 -77655.973 L 161702 -77655.972 A 1500 1500 0 0 0 163202 -79155.973 L 163202 -81155.971 A 1500 1500 0 0 1 164702 -82655.971 L 168702 -82655.971 A 1500 1500 0 0 1 170202 -81155.971 L 170202 -79155.972 A 1500 1500 0 0 0 171702 -77655.972 L 172848.212 -77655.973 A 1499.9998004 1499.9998004 0 0 1 173473.109 -77519.609 3999.9993541 3999.9993541 0 0 0 176805.891 -77519.609 1500 1500 0 0 1 177430.788 -77655.973 L 218852 -77655.972 A 1500 1500 0 0 0 220352 -79155.972 L 220352 -81155.971 A 1500 1500 0 0 1 221852 -82655.971 L 225852 -82655.971 A 1500 1500 0 0 1 227352 -81155.971 L 227352 -79155.972 A 1500 1500 0 0 0 228852 -77655.972 L 239848.212 -77655.972 A 1499.9998004 1499.9998004 0 0 1 240473.109 -77519.608 3999.9980284 3999.9980284 0 0 0 243805.891 -77519.609 1500.001 1500.001 0 0 1 244430.788 -77655.973 L 247139.5 -77655.972 A 2000 2000 0 0 1 249139.5 -75655.972 L 249139.5 -505.972 A 2000 2000 0 0 1 247139.5 1494.028 L 244430.788 1494.028 A 1499.9998004 1499.9998004 0 0 1 243805.891 1357.664 3999.9993541 3999.9993541 0 0 0 240473.109 1357.665 1500.001 1500.001 0 0 1 239848.212 1494.029 L 224089.5 1494.028 A 1500 1500 0 0 0 222589.5 2994.028 L 222589.5 4994.028 A 1500 1500 0 0 1 221089.5 6494.028 L 217089.5 6494.028 A 1500 1500 0 0 1 215589.5 4994.028 L 215589.5 2994.028 A 1500 1500 0 0 0 214089.5 1494.028 L 177430.788 1494.028 A 1499.9998004 1499.9998004 0 0 1 176805.891 1357.664 3999.9993541 3999.9993541 0 0 0 173473.109 1357.665 1500.001 1500.001 0 0 1 172848.212 1494.029 L 166939.5 1494.028 A 1500 1500 0 0 0 165439.5 2994.028" fill="none" stroke-width="100"/></clipPath><mask id="sB6OorTWbbyhIPNyWCnF_top_mech-mask"><g fill="#000" stroke="#000"><rect x="-1460.5" y="-82655.972" width="250600" height="89150" fill="#fff"/><use xlink:href="#sB6OorTWbbyhIPNyWCnF_top_drill1"/><use xlink:href="#sB6OorTWbbyhIPNyWCnF_top_drill2"/></g></mask><mask id="sB6OorTWbbyhIPNyWCnF_top_cf-mask"><g fill="#fff" stroke="#fff"><use xlink:href="#sB6OorTWbbyhIPNyWCnF_top_soldermask"/></g></mask><mask id="sB6OorTWbbyhIPNyWCnF_top_sm-mask"><g fill="#000" stroke="#000"><rect x="-1460.5" y="-82655.972" width="250600" height="89150" fill="#fff"/><use xlink:href="#sB6OorTWbbyhIPNyWCnF_top_soldermask"/></g></mask></defs><g transform="translate(0,-76161.94399999999) scale(1,-1)"><g mask="url(#sB6OorTWbbyhIPNyWCnF_top_mech-mask)" clip-path="url(#sB6OorTWbbyhIPNyWCnF_top_outline)"><rect x="-1460.5" y="-82655.972" width="250600" height="89150" fill="currentColor" class="sB6OorTWbbyhIPNyWCnF_fr4"/><use xlink:href="#sB6OorTWbbyhIPNyWCnF_top_copper" fill="currentColor" stroke="currentColor" class="sB6OorTWbbyhIPNyWCnF_cu"/><use xlink:href="#sB6OorTWbbyhIPNyWCnF_top_copper" fill="currentColor" stroke="currentColor" class="sB6OorTWbbyhIPNyWCnF_cf" mask="url(#sB6OorTWbbyhIPNyWCnF_top_cf-mask)"/><g mask="url(#sB6OorTWbbyhIPNyWCnF_top_sm-mask)"><rect x="-1460.5" y="-82655.972" width="250600" height="89150" fill="currentColor" class="sB6OorTWbbyhIPNyWCnF_sm"/><use xlink:href="#sB6OorTWbbyhIPNyWCnF_top_silkscreen" fill="currentColor" stroke="currentColor" class="sB6OorTWbbyhIPNyWCnF_ss"/></g></g></g></svg>